<mxfile host="Electron" modified="2024-03-25T22:02:58.542Z" agent="Mozilla/5.0 (Windows NT 10.0; Win64; x64) AppleWebKit/537.36 (KHTML, like Gecko) draw.io/24.1.0 Chrome/120.0.6099.109 Electron/28.1.0 Safari/537.36" etag="iBs4eB-W6IP3Y3ljqc6C" version="24.1.0" type="device">
  <diagram name="Page-1" id="EmwzgHjXN4L9OG_YRLbm">
    <mxGraphModel dx="1123" dy="556" grid="1" gridSize="10" guides="1" tooltips="1" connect="1" arrows="1" fold="1" page="1" pageScale="1" pageWidth="1100" pageHeight="1700" math="0" shadow="0">
      <root>
        <mxCell id="0" />
        <mxCell id="1" parent="0" />
        <mxCell id="kKCmZU7g9CsREEnNZsZf-6" value="" style="shape=image;html=1;verticalLabelPosition=bottom;verticalAlign=top;imageAspect=1;aspect=fixed;image=data:image/png,iVBORw0KGgoAAAANSUhEUgAAAF0AAACACAYAAABp0WUyAAAABHNCSVQICAgIfAhkiAAAAAlwSFlzAAAFrgAABa4BrQQaEQAAABl0RVh0U29mdHdhcmUAd3d3Lmlua3NjYXBlLm9yZ5vuPBoAACAASURBVHic1Z13nFTl9f/f996507fvsmxhmYEBRFF6ExWNQsTYYkFjL4kak1hjicYk9qiJ0WjytcUSxYaKoqBBsVBEBAUBaQ47s7vAwvYyfebe+/vjzszO7M4Wdhf193m99rUzd+5T5jPnnuc855zneQRN0/j/BS6H0wxMBWYBkwELIAMGo1G2WS3mHFk2WGNRJSrLhp2Kqq5tbGpZCWx0ez1NP2DX0yD8mEl3OZxZwAnoJM8CJgHG/tQlSdIeRVHWA2uB/7q9nj2D1tEDxI+SdJfDORb4DXARkNXb/aIooqrqgTShAO8C/3R7PZ/0q5MDwI+GdJfDKQGnAL8Fju/p3qKCPKZNHse0SeOYPvlwykuLCUeiBIJBAoEQgWCI1jYfGzZtY+1Xm9mwaTvhSLS76hYB17m9nurB/Ubd4wcn3eVwGoBfA78HKnq6d9b0Cdx49UWMdg0/oDYi0SgbN+/gi/WbWPz+Z+yra+h8SwC4xu31/OeAKu4nflDSXQ7nscBjwDjQ1cQRRxzB3LlzePXV16iu1oWveEgBt1xzKXOPmzngNhVFYdkna3jh1XfZss3d+eM/ur2eewfcSC/4QUh3OZzlwN+B+QDFxcWceuopzJk7B7PZzGuvvc6rr7wKaFx4zilcfdl8rBZzN7VpaKqCpqpomgppr2OomoYAIIoIgoggSMnXG7dV8sRzb7Bm3abUCh8Frnd7PQeNmO+VdJfDaQJuFAThT5qmmXJzc7nk0ks48cSfIggClZUe7rzzLvbV1jLpiLHccdMVjBrRVeNoaGixCEokhKZEGMh3ECQDL771ie+xZ16zxWKKEL+8ALjU7fV0OxAMBN8b6S6Hc54oiv9WVdVhNps56+yzOPvsszCZTFTX1PDRh8t5d/Fi0DT++Ptfcdq8Y7vUocbCKJEgaiwKDG6/N22tDP76tkcNoXBEjl96HzjD7fWEBrUhvifSXQ7nr4AnAWHYsGH85c4/U15eTktLK+9/8D927apkzepV2G0W7elH/iyMHe1MK6+pMWKh9jjZBw9bdni46tZHY8FQ2BC/9JTb67lysNs56KS7HM6rgccBYebMGdx8y81YrVYqKz0s+3A5oVCINatXYzZJ6vOP3yWWlxYny2poKOEASjjAYEt2d1j/zU5+fdsjmqpqCVVzntvreWUw2ziopLsczivQJZzzzz+PCy+6EE3T+OKLL1n/1ddomobHU0lT3b7Awucesubn5XQU1lQigVY05eBKdya8+OaHPPLMW4m37cAUt9ezc7DqFweros5wOZw2QRD+CjB79mwuuvgiAN7/4H+sW/8Vmqbh8/lw79wZfeyBW38UhAuiiGzJ5vKLz001T7OA1+N+n0HBQSMd+JWmaXmFhYVcc+3vAFi7dh1btmwlEg7T0tLCurVftF96/qnSoWNGJAtpmkrE39wj4YIgdPtZfyFKMkZbPqJsRhAl7rn9t1SUDU10YjzwyGC1dVDUi8vhlCVJqlJVteTa664FTWPlqlVs3rSZSCSSvG/okIKm91//d74sx8ctDSKBzIQLCIhGC5LRgiBKaJpCLOhDjYUHpc+yNZdwTGPhO8tYuWYDggDRaIx1G75Nve0wt9ezdaBtGXq/pV+4SVGUEoBH/pEuIIIgUFFRQVVVFePHjbEnCQdiYV9mwgUJ2ZaLIErs3FXN0mUrqKndT35ODhefcRxFBb36xHqGIIIoccPt97Pyiw093fkr4PqBNTbIku5yOK3AE8CFqdeHDi1m8pQpTJw4gQkTJpCVlcUZPz9Tzc22if974/8AUGMRooGWrh0UDci2HILBKA//+78sXPwhitLhUTSbjCx65k6GFOb2u9+CJFNT5+O0C67jsNHDybJb8e7ez/765s4Tr0agzO31DOjxGjRJdzmcAvAhcGSycoOByy6/jDPO+DmCINDc3ILXW83uPXuwWi2xPbV1xqbmVvLzsomF2jPWK9ty8PlDXHnDPWz6VjcgDJJEfl42kWiUcCRKW3tgQKRrShRZC/HcwzdxxNiO8aWyupYH//0a677ZkbhUAJwMvNnvxhhc9fILUggvKSnhttv+wOgxo6n0eFixYjWtra3Jm+32LGN9fQOV3t3k2keiqUqXCkWDCU0TkoTbrGbOPOlozjvtJxQNgORMKC7MobgwJ+3aiIoSnvjrdZ1NyBP4MZDucjiNwD2J99OnT+eWW29GURQWv7sEj8fbpYzZrFtgOTlZ8clPV0iyibeXfMymb3eSbbfy9IM34nKWDkaXDwgXnjkHt3cv7330BcBPBlrfYJmMxwNOAKvVyo2/vxGA1994KyPhAMFgEID8bCuqGstcqyDy3MvvYDLK/OMvV/8ghCdw45VnJ0zV0S6Hs2wgdQ0W6TMSL8459xysViuL312C3+fvtkAgGESWDdjN3XehpbkFT/Vezjv9eCYcNnKQuto/ZNutjB5Rnng7eSB1DRbp0xMvZh9zDF999TV1dfU9FggHgwwvL4HupBwwiAqjRg7jkvlzB6mbA8OUI0YnXg7okRss0icBWCwWhhQPYcu3vc8fgsEAo3p5Sk2yxCuP347dZulTJ+obupqcA0Frm4/K6trk+8kdpJcMpN7BIj0boKKigj179+L3d69WAKLRKJFojJHDh/ZasdBH76JokHntvRWEQoMzQxUEgZy8Ap56eUny2vhDk+Zk7x3vAQMm3eVwlgKmxPue9HjynviPMnL4gAQGAMlgwphVgGzNw2rP4p1la3ots+KLTXy44qtuPxdECdmWj8mWw7c7qtju1mO12Vm2xGD6w0m6y+GcAHyZeB8Oh4l0n+qQRCBOussxICMAQRQxWLP1uCfwk6On8fzCZfgDPQd7ZNnAog9Wdfu5ZLYjiHqdI4aX8n//fRcAURCwmE0AwwbS736T7nI4TwVWAUnmwuEw4XDvj7eqqZgMBkqG5Pe3eQAEyQh0eBzHjHJSVlLEY8+93WM5Z8VQvty4gw1bumQDAAKi1JFEdvLcWaxat4Vvtu4CIEsfXw53OZzj+9vvfpEeD04sAmwAUvx6KBwiEo10Wy4B2SBTaDUP2EWrRkNoSrr1c82vzuPNpStYu2F7t+WKC/PIslm4958LiMY6z4Q1lLAPJRwg4m9i9tRDycm28++4tNvtFtC/8qp4CskB44BJdzmcxwP/SpQ9yWZhpFGP5YZDYQySgdravXyzYQNrPl/N1m+/Ze+ePWkuXYPBQFNwcOK9EX8TEX8TUX8LEV8zR4wq5sjJh3HDXU+wY1dNxjKCIHDGSUfhqdnHCwuXpX0WDkf5Zss2Fr//MY8+vZDf3fE4oVCY9d/sYNt3VditSUvKDrzpcjhHdK6/NxyQGyDewOuJchdm27k2N5ubGprYGYkSDAa56847UZQO6Wlu0pNlLRYLU6ZNIysrG1mWCUZjNDS1Upifk6mpPiEQDPPm0pUMLy/GUV5MXm4W7b4AJpNMKBTm3Y++YMzIzOr3F6cfz8uLPubZV9/np7OnMKy0CIDK6r1cfO0DXe4/+2fHcIirovPTmQ+843I4Z7q9Hl9f+91n0uMZtIvjDXG0xczvcrNpU1W+CetSrGkaiqJgNpsYXl5CSXEhzS1tfPPtToLBIGtWr2bylKnk5edjkCS8NfsHRPrm7R4eeaZ735NrePdzmMK8bE6beyQLl6zg/sdf5t/3XQvAmJEVnDnvaNZu3E5jSxvTxh/CKXNmcOzM8QiCQCymIAoCpZLIbl01jQNedDmcZ/Q1QalPpMfdti8ChwE4ZAP3FOQhAs+3+WhK8W/PO+Eobr32UgryO7yAm7d+x6+uuwufP8DOHduZOeso8vPz2emuYsr40fQXE8e5uPjsubz01kdpPnaDJHHrb37B6SfO6rH8tZefwfpNO1m7YTtPLXiPK84/GVEUuO2a87otE1MUbJLEbXl2bmpsxa9qAKcDdwJ/6ku/+xTEcDmcdwN/BMgSRV4YWkiFQf+9zt9Xz464mXj15edw9WXzAdi3vxFZNlAQl+TlK77k2j88gCAIHD9nLpW73IzIt/LAXVf3pZ89orXdz+7aBhqaWsjJsjOsrIiC3Ow+la2sruXCax8gFApz902XctJPpvV4/zm/vof2/Q08mWvn63CUu5vaEtM3DZjv9nre6K3NXgdSl8N5NnHCReDegrwk4QFV47s44eMPG81Vl5xFTFG47tb7OeGMK5h9ymX88po7qKmu5rhZkynIz0HTNHbu2M7+2lqqdu/rrfk+ISfLxmGjhzN7xngmHDayz4SD7jO/PS7Zd/3jv92YkR1QFAVb/PtPMslclGVNfCQAz/fFlOyRdJfD6QKeT7z/TW42R1qSk0/WhoMkHuqLzj0FURRZ+r8VtLa1k5djB+CLr7Zy5e/vp62xluOPngJAdVUV/kCAmqZW1B9BfvxJx03jrJOOIRpTuPHuJ6nZ272zLqYoWFIMhZ/bLRzdwYkNeNvlcPboLOpN0u8GrABzrRYuzrYnP/CpCs1xG1cQBKZNHgfA5PGjeeKv15GTZWPsqOHMP+VY9uxrYMGi5ZwwazxZNgvFRXkcO3M8Lz9+G+JBSKfoD2686mwOHV1Ba5uPa//0OC2tmd0ZgUAIi5K+6uN3OTZGdATYHcA1PbXVrU6PT/G/BoQcUeSd0iHYRf03imgq9bEomyJR7mhsw2I2sW75ywDEgu1EQn5mnX4Ni5+7hyGFudz72AJ2unfzwqO39JGCHwb7G5q54Lf309TazpiRw3jygesTM1AA2v1Bjj3rBmZbTFyfa08rWxVTuK6+JaHfm4ERbq8no9uzJ0m/j/gc+9Jse5JwBY1GJYoGWONSGgyFaWzS61fVKHv3N5KXm5UMFv/u0p9jNMldW/ieIUo996G4MI+H7rgSSRLZsauGfz77VtrnlVW6mzdH7Pp0DjdIHNOhZvKAm7rtR6aLLofzGGAeQLEkMT/LBujDc1MsihL/OfOljuI1e/brLxQFo9FAaj5Ltt3Kbb/r3gz7PiDJFmRbHrK153nBhMNGMm6MnjWcm5WeT+OJ+9ZTVEkazsuyYuj4Pa51OZzFme7rTtLvT7y4MicLY1yi21WFcIo6yhNFyg265+XzLzfqKyLQKC7MY2hRujPLOWxALugBQ5TjTqw+jNvtfj1+O6KTv39X1V4AXN2QXiyJ/NSaTHm0Ebf6uvSl8wWXw3kK8VQKp2zgZLtuEilotGdIk5gYVxsvv7GUcLjDv3L1Rad2952+d2zaVok/FCUW8hENtnZ7n6KovP3Bairj5E46fFTa55XePZgFgTKDlKk4APPtFswdxsEVLofT0fmeNNJdDqcIJBc6XZ2TnbyhVVEyLjOZZNIlqKXNx5tLPtFT1OAHDySn4p1la1i5ci1KJHOqRygc4bXFn3L6L//M3Y++xBFjR/DMQzdSXJiXdp+7cg8jZAM92Vs5oshptqS0G9FnqmnoLOlnAIcDjDMaOS7+qIRVlUAGKQeYYJIZGX/cnnj2dar2NvbQpR8GwWCIV99JT8cD2O6u5rHnFnHSRbfz4P+9hkk28Lc7ruS5h29i4jhX2r27vHtpaPPhkruX8gROt1vI7hhsL3A5nGkS2Fk5nZV4cVVuxyDS0kPEXgDOz7JyV1Mbza3tXPH7B3n6weupKBvS5d7lqzZgtdk5ctLoAS3OOlD87IQZXHPH45x++Z8oLykiEo2yv76Z2jrdA1pUmMsfr7mAU+fOREoxDtp8AT5c+RU//+lRfLjya6B7fZ4KiyDwc5uFF9oDoAv2mcCDic+TLbgcTpm4xZIjikzTw1KEVJVoLwRNMskcZdHVTENTC1fe+ggfrfw6OdvcssPDlbc+ws33PsXKdd8iGW29dnwwMWvKYUybcAiqqrGvvok2X5CKsiH89tLTefHRP7D0hfv4+bxZScL9gRBPvrSEky++ndwsO6IosHylHlMd2QfSAY5KmbkDp6W+Sa3hWOJR/aMs5uSv0d6DlKfi+twsVK2dz0MR6hqaueW+p7GYTeRk29gXlyiL2cTF556KaJBhcIL2aVi1bgs7K2v46TFTKSspTPvs/+6/ttfynpp9vLV0Je9+uEafCM0cz/FHTaSyupbKmn3YRYHSHgbRVBRJIg5ZwhtVAGa4HM4hbq+nDtJJT/4as+MLZSOammYi9gQJuDEvC0OLjxVBndFgKEwwJSXiz7dcRUX50IzJogcKUTZhMGfHFwe0oylRjpo6jqXL1/Kv5+8gL8eOY9hQnBVDyc/JQpZljLIBo1HGaDBgNBo4dFQFFouZvz+5kG93eqlLyZs5xFXBvTdfCsDyVbpqmWE29jiIdsY0kxFvNAi6RjkZeBbSST8FQBYEZsRVi+/AdpZAAm7ItTPfbuGjQJiPg2Ha4nWUFBdy8txjAD2KLwjCwBbdCnod+gLeKDFFwSBJ/On6CynIz+GtpSvZsMXdo9fwsnPmccyMw/nk841p1ycdPor7br0cc5yHZcv1hIdjzKYudfSEqWYjr/uCibenESddhKSfpQJgismIVdRTfIL9lMhyg8Ql2VaeK87jiHj8tK6hOSWMJyD0MiXvDZqm/5hKJMTbH6xm3vl/oM0XwGwycuMVZ7Hkhfu49JwTe8w4aPenm5BF+Tnc/rvzeeqB6ymKxwE+Xr2Byr115Ikihx+gK8MlG8gTk8PmnIT3MSHpSdVyTNxMDKnKgFduSsAUs5FNkSiKouCtqWWkQ0/CFCQZYpkzB3bsquk2tpmApsT0J0VTOWXOTFas3czfnnydO2+4GEEQyM2x8dtLTuO3l5xGS6ufbW49aailPUAsGiUaVThk5DBKigt46I9XcNgYRxe7PBZTeOzZRQDMshyYagHdsptqNrJMz8OxAHOAxQnSk9PHY+L6PDRIJt34FOn4ZOW6JOmiQUbpZjBd+smXiKLYY66jpipEfPqcQJJE7rvlUs777X3c9tf/cMvVvyA3p8NCys2xMXPyocycfGjGun4ya2LG628sXUF13Ld+rOXAVEsCU01ygnTQhXux6HI484gngI42yhRL+ugc1A5Mn3eH4QaJ3Pgj9sHy1cnrunrJLDtTDh/Nrfc/kzYIZ0RKH81mE/fcfDnLV29g7vk3c80dj7P04y8JBvtnJvn8QZ5esBSAWWZjn+zzTBhvkpO+K+KbBwkjhzsOBzYBnGyz8peCXKKaxv5uHv3+4OEUi2bJq48zfJieChgNtKB2084F19yPy1HGX2646IDaWr7qa/744HNEorqpK0kiedl2srNsZGdZycmyI8sS0aiCoih6ePGXZ3Z5qv757CJeWLgMoyDwr6JciqR+5WUBcF1DK169PzHAKOXn5k4gvhpulsXENLOJgKoSHiRJBxgiiXwY0EkvyMthygT9MRcEETWaOelo9IhyHn7qTew2C+MOcWa8JxNGVJQw4dCRfLrmGyJRXe8HQmGaW33sq2+mavd+Kqtrqdq9n5raeuYcPYl5x6UHo3d593Lnwy+iqiozzEbmWAe2WPrLUIRa3QUhAv82kJKBWjTIqiWBkbKBeVYzSwMhln64kisuPhNBEBANRn0hbgYradwYJ7f+5lzu/ecChg7J59iZfU8dnDJ+DMsWPMCX32zni6+20tDcRigUQVU1HMOKcTlKGekoY2RFCZZOulpRVP709xeIxvQn5eh+6vJU5Kc/JSVppBdKEqqmERlk0gHOzrKwLBhil3c3HyxfzbwTjgJAMlq7Xc54+omz2Oau5vYHnuWpB67nsDGOPrdnMskcPe1wjp52+AH188mX3kumRgNURmPMMPdrV8Ik8sV00kXSSBcJHQTCQQ94DIk/Sf986hVi8aC2KPecSHrTVfM5bPRwrvvLv/l2h/eg9C2BF9/8kP+8+n7atdd9wVTro1/oLOkiKetniiSJyEHy/n0SDLM/TnTNnn28sfhDQM8kEOXuMxYMBolH7vwNFWXF/PKmv/POss8HvW+apvHCwmUda0UFoSPSBDzR6md1qP+GRV66pJdKJXl5NytQKgC/y80mqKnEBpF4n6rxRKufV33BtMnWt9t3ce4ZJyIbDIgGGS0aSc4yO0OWDcw5ejLrN+3ktcWf0tzqY8aksYhi/y2KBHZU7ubme59icXwFhyCKlEybS/7oSfj3VqLG9CD8mlAEkyAw1njgM+mgpiUNCWCblJOT+wcgL1cUuTQnizZVYTAUjAK85w/xQEs7O6JdPZXBUJjtOyuZc+wMDAYDgkFGjXT/GCeI3+Xdy/uffMnKtZvIiTu1+pPnXt/YyuPPv809jy5IekFFyUDZrJ9hL3FiMFuxl47AV+tBjefcfxOJ0qiqTDYbDzjHfLE/+d12S3m5ufcDcrnBwJlZNtqUvrlye8KWSJR7mtr5LBgmEhdvQZLIdR6GvdRJoF7f5rZ69z7Wb9jKsUdNwWqxIIoSanfTVHTiTzx2KhVlQ1i24ive++gLln26HpNRZqSjFKkXyVcUlRVrN/HIf97ir/96lS07vGlONzl/KEo0grWgGEEyIBnNZJWPxF9bhRIXiMqownfxwdXQxx/bJAos7HB8tQgjhztagJzhsoHXhhaxbwCTolZV5bm2AJ+mzAJF2UjuiMPJG3UEkkkPcrd6t7H/608g/oVNRiMnzT2Kc07/KaMdpWhRP53D9q1tfj74dB27qvaSnWVDVVXeWLIiub6oqCCHIycfRkV5McPLhlBRqkeudlXvZVdVLZXevWzc4qaprfc0ctFoxjHnFxjM8aB8OMDulYsJt3aEIkfIBu7Iz+qsrzMiomnM35fc1PozYeRwxzbgEKsosKy0mIZ+bOGkAf8LhHixPZBIHUYQRXJd4yk4ZEraoJRAq3cr+7/qurewKIqUFBcwrKSQirIhDCsdQmlxAf96/p20NZ2DDRHS1Kq5eDhDJx+H0aL7cJRImL1rlhBs6OhDuUHirwU52DMkH6Viv6JwZV3SV/+qlJ+bewbgjGowP8t6wINoZTTG/c3tLAuEicaLWouHUXbkyWQPG4UgZY60mHOLUJUYoUY9c/foY47h0cceo3xYOe1tfjzePXy1aQer121h2WfraW71IQCjZJkK2UC9ktkLKgAum4X2WMfYlC2JHJKbxU9GV3DOcdPIicb4rlFPgSs1SPw6J5sHivK5PCcLpyzzSTCEEg4iWPU4sdFiRZQMZFeMQY2GCDXXAdCmatQqSufQXBfUxFSWdzz9ywxA8qfbH1PI6eMIEdA0Xm4PsNQfSn45g9nKkImzsZf2vAwnEvQTaGlAs+ViLh5OqK6aL9eu5ev167jkkku46te/BnRTrqW5hflnnoHH4+Xewjzmxtf8+FSVL0JhVgbDLA8Ek15RDbAZZR771VmUOEopKi/GFM9H9DW2ctvv/8bqfQ2YBIGrcrK4MMuW1M0aGnOsZp5rk6mMRogFfPgRiIYCZBWVIRlkhkyYjWzNpn6zbrp+EYrQpKidbfE0NKUHg2qFkcMdD6Hv6MzfC/MYKffMugp8HAizoD1Ac0plthIHQycfj2TK7KfQNI2wr5VAayOxSPpgqYT8CA3VtNXvY8qUycybdxLHHDubwqJCBESmT55MrqrybllxRquhVVV50+fntXY/jSlpFlMLcxlWlE+WzUKW3cJbazaxNxzhSIuJW/Nyk/HOFjVGUFFJPDsvtAdY5AtiG3E4co4eaxUlieyiMoxWPXF0z+r38O+rAuCl4vweVcy7/hD/aUtmAV+QJukNqsLIHoyh9eEIL7QFqElZBiiIEkVHzCJ3ZObptqooBNuaCbY1oXZjGUlmG5SPxZ5ViNu9i7vvvhvD/fczYcJ4Dhk7lnA0SqlJN9MC8dQ+DV0yBcAsiFycbefCLDsL2v083dpOWNNY19DCuk77BYyUDfyzqCD5PqSq+JR038/QeNJ/6nJJVVFo2VeDNScfe34x5vxi/PuqsIlCrzq9s6Snkd4YU1MWnKfjdV+Ql9vTw1vG7HxKps3FlFPQ5X4lGibQ2kSovbXbSU9nGHKKILsAS2MtauNe1q//ivXr9dQHWRDQ0GhWYl10eQAVFLAKIpdk2znDbmVtKMz/tbSTJYrclJ9NsxLjjsZWKqMxvgyFEYFRRhk5w8iQH38COq9RBY1AayPRUJBwm26NDO1mzEpFk9ID6Q3dxESbFLUL4bkjxlF0xCwEKd25Hwn6CbQ2Egl0Nfv6BEHEVFgGBaVITfuI1NcQC/oxCgKa1vP2DNH4p/tiCpXRGO2qyiFGmbFGmdqoxi/sVp5u8/NISxsnWC1owKgMGVvFcf3clfR4O+EAoSY9S3l8H+KmzRlI35t416hklsj6lMdDMpopnvwT7KWpPm6NUHsrgdYmYj3MKg8IgoCxoARj/lCC367BKPT+E2oILPMHWewPsDEcIaRp1MRiNMQ3Rk5kJpxotXC23UpAU/Bl2jssri0S+wNkghrShXC6qXcPZIp6Cbq9nhYDsBuIAvLWbjZTyEqZeVmKStMIV1WFpt27UGMDn8lmhCAgZeXiC7TQi+okpqmMM4pMMecAGo+3+FgeDLE9EiWkaXwcN9ssokBjD/ORQDwB32DPvDmbEvKjqgo5oshoY89hvDZVZU/HGFgJYHB7PQGXw/kpMKdeUfFEYzg7xQNLDRLFksR+RcFf60UJh5JWiihKaOpBzku057G5pQ4Nes2XUSGZ7GoUwK9q3NiQnh69sN3P5rCBIlFkqEFiqCRSJBtILGjZHI4gihKSJX2JSwKxuD7vS/LR+nA09QldCh0pGO+gpwewLhztQjro+YrvB/SjD9pqdpDn6ojkyCYzkWDv+7z0FwZ7Lm2qhjsSJVvUA4294bNQhPdCUcrKyrDb7UyePIlZR82istLDSy++yNL9dV3KWCSJIQaJ+piCaM2GbnwrCdJn9SG4sS7dJfwOdJC+GH2Pc9aFIsy3d/VvTzHLvB/3c7R5t6WRbjBZDirposmCQTayJhRmntVET9o9omk80xZgWSBEWVkZj//rMazW5FpPXC4Xxx13LIsXv8sXa9awadNmio0y1lIHLQjs5o92BgAAE0JJREFUrq1BUSIIgTbUSAjRmD7v0FQVxd9CtigyrpdBNKppbAgn1Vg9sAbipLu9nhqXw7kBmOiOxmhW1S6OnAkmI9miQJuqEW5tJNxSjylX38RA7mZCNJgQs/J5t72Bk22mbjnfG1N4sMWXiLzT0NBAU1MzVqsVg8FAWUUFTU3NGESRs88+i/Hjx/Obq3/DCdf8CWmYPk6F/H6WPHo3/v27CVRtxe6amCbxir9FD1hbzb26dzdHYqn5Q++5vZ5kdDqBxaB/n3UZoiQScFRKLl+rd1vytWyydrl/sGHML8YbjbEj3HUA1IDPgmFubGilOhrj+LHjmF5aTjgc5u9/+xuqqpKbl4/7OzdTJ07kjTfeYLhzBAaDLqliQVGyLrPNxs9vuZc8x2hi/jbUSDCtrWj/VcvixIsupAN8Gco8sh9r7SC9vea7ZBRfNBgQpf4l4/QVhqw8zLKRFSlfpElRedsf5Nd1LfyjxYfNIHHWuZdRdtWtjL7semyiyNat23jjjTcJ+P0Mq6jg4ksu4ejZsxElCdEgYRRFBGv6gClKEmpMwVRYhthJoGJtTWT1QbUArOtYgxUCkhvLJEl3ez1fAzUAmyLRjLHS0bIh6a9QIiF8td4OUgaoYjSlt2RVAQpKWeQPcndTO5fVNXNZXTPPtwXYpyhMGlLMvD/+HfNMfVdWoaiYY6fpu2C8+sqr1NfXYZRl7rr3XsaOHQvoG7hlZQi/fbfuc9r21WAuSc+3UUIBlJCfGWaZ3uahnmiMho55z0duryc5u+yslt4FfTBa1U0gdnaKGzOwvyNVQTb1be/ETIi1NxHYtRGDsecfzlhYiiab+CocSZtaTyspY9ztf0fITXdHFJzzS4ZbLfj9fha/s5i21nQ/jN/nxyank64qCl+9vQBL2cgus+1ok+6GntWHlOmP09P5Fqe+6Uz6i4kXr7QHiGUYsI61dOiyYENyMjsw0n0tKOEgOUOHIfbgyxBlE1mHTMVacQj2URMRJJkRWdmMufHubgpIzDjjIgRg0aJF1NXVsXv3bn4xfz4bvv4av9+H1ZBO+heLXkHVwJjfed2rRqRpHxZJ6jVlul5R+aAjEO1D3++so1upb9xezxfEpb1eUZMmYiqKJYlD4rOwSHtLckfogagXTdX0mKRBJruo520DBcmAsaCEaEs9mhJlys/ORMgQmUrANPVopg8bTmtrG0vefY89NdV8s3Eje/fsoWX/fiwppLc3N1D5xcdYhnXd+CfW3oIaDTPdZOxVtbzSHkhdp/UPt9eTdkJhJqvnduKRq4W+IMEMuj01bThQr0u7KBkQDf0bTEVZ1tchAZKx90dXCQUIN+yhxGzCPLPHUzQBcP3iV0iiyFtvLaK4uJgt27fzs1NOYdfWrWTldEz1V770NHLukIwz0UiT7hecbe5ZymtiCp90qJZG4G+d7+lCutvr2Qy8DLrf4B1fsPMtzDKbkBKbMQyCihFlU8Y4aneI+ZpB06gNhdl417VEN6/vuf4yB+OHllBXV8ey/y0jGNCfTveuXVidYwB98Gyq+q7L4Al6Lny0pQGLKHJEL6rlpfZA6jTifrfX09alP92U/TO6E4y3/aGkdy6BLFFgcrzxVNJ7Gwi7g2gwIhr6TrqcXYhk1Xcv2tTYyKvPPMKWe28gtu2bbsuMOvYkABYuXEhTYwOKolBdV4/10AmE/D6+fON5zKVdB09AV2WqwpG9WC07IjHWdhggu9G3UuyCjKS7vZ5K4GnQV2S8nkHaE3sChFsbkzkhBnM/B1NJOiBJF40mskZPxFSkr+rQgK/r6njliYfYev9NKO6uu1qbps/GkZuLp9LD56tWs2PbNoySiM0xio+ffQxBkjMMnjoiccHKZLVowM5ojCX+EH9vSUvv+Gt3hw32pITvBi4BrB8EQpxisySd+6CvsEgg2FirZ0UdgLSmQ+h1L5auRUQs5aMwFpYS3l9NpHk/mqaxfl8tXz92H4fl5zNq+mxsx5+SHGiPGD8V72cf8vrrC1E1jQp7FjvXfEbDrq1kjZmSsRkl6CPmb8UqismARUjTWB+Ksj4c4etwtIsmiOMml8P5ndvrWdb5gx53q3M5nPcBfwA9tnh/QXZyKYdP1bhgvz4lLjh0GgVjp6KpKvXe7rdb7Q5KoA38bZRMn4sSi9JY/d0B16FGQoTraog01qblu2dLEuOHOyk/4VQMrkNZ/Kff0hoKceSRMwnt3c83tbUYsguwlI/KWK/f8y3Rljp+YjFxfpaVJYEQywIhfBnc2RUVFdTV1REK6QIuCEJY07Sp8XEyid5Iz0HfUmoE0GUbpcvrWmhUFLIrxjB06gkANFTtQO11dpmOmK8FIdhOyfSf9pv0BDQlRqRhL+H63ajR9KwDh9WKClTHB1KLwUAIkexDp3fR5ZqqEmnYQ3CPvg613CBRG1Po/M2KioqYf+45zD/3XMrKyohEItxz5128vGBB4paNbq8nbSVZjzae2+tpdTmcpwOfA/bPgmGcssTp8TyS4QaRRkUh4uuY6YmS3CvpajhIcI8bS/koRKMZJdAOka7jRr8giBgLhmLIKSDSWEukYQ9a/PH3BtLjvMFYDHPJCCKNtajhIKoSRYuEUCOhZNJoArtTMyAEgRkzZ3L+BRdwwtw5GFJMZaPRyF333sOQ4mIeefhhgAkuh3Oi2+tJHhXWq2Ht9no2uxzOi4E3AOG/bQEcBgMTTDLDZQNfh6NEfR2RGdFggF7SIUWTGTUSon3bWoyFZShBP0qgLUlOBzTUaAQtGkaNhFGj+p8WCevrSFVF/6/E0BQFTY0l8yP7ilBtZZ/vLSoq4syzz+bs+fMZ7uj5RPdfXvErnnnqKXw+H8A5QN9JB3B7PW/FdyH9kwr8raWdhwpycKQ4v5RICMloRjL0ZUAUMBWVE6jeTriuY+fnfes/Qo1FCbc16STHIgdM4sHCifNO5K8PPYTdnj5x2rNnDzt37CC/oIBDDz0UOe7LMZvNzPvZz1j42mugk35rosyBTCH/AhwBnO5TNe5rbuc3Kfo96mtFyjcj9TIrVUJ+Ik37iMZTGFLRXtO9LpckiaHFxQwbNozyigrKhw2jvLyc7OxsREnEYDAgivp/Ke6/aWhooHZvLfv21bJn9x6qvF5qa2tpbm5GkCRkSxYGiw2DxY5/f5Ue+5UkXl34OqIosmXLFv78xzsoKCjgxhtvSBIeDod57tlneebJpxg9Zgx/uesuRo/p6jo448wzEqQ7XA7ndLfXsxYOgHS316O5HM4LgS+Aw2piSlouTMTXgjm/OG2X/c4wWqy01mxHDQWQzFZE2YSaPKgbhgwZgnPECMrLyykrL9cJHqa/Li4uTpLZH0TCYWqqvGzYsJFbb7mV/DFTKBjbYSbu+XyJHnRXFEpKShlaMpTDjziCp594kt27d9Pc3MywWIxwOMzFF1xIKBjk/gcfYM7c7o8DmjJ1KgUFBTQ2NoIu7QdGOoDb6/G5HM7T0M/ByN8UjiKgTxCi8cG0J0lXFIWymSd1mblqSoxd7z3LbTffxMlnndVN6YEhoaRycrLjbaYHaoz2XBJR3pqaaoaWDEUURc497xf87cGHcLvdjD1sHH6/nyeeforCwkI0TaO5qRmzxYzF0nViKAgChx9+OJ9++inA2S6H80a316Md8KIdt9ezC32Ne7P+ZXS7PeLTXQxiDzpdiYRp3uOhtW4PgZZ6wr42YpEQgighmW14du060O70HfGxISdH390iNU9HgzRPZVVVVfL1rKOOBsD9nZtIJMyQIUPIy8vjuf/8h7N+fga/vfpqfn/9DTz26D9ZvWp1l+OGxh46NvGyHJgF/Tww0O31rHI5nNOBJaCNApLrhXoL2yWyd1MtaAFAMuCp9PSnO31Ch6TrpEeDPkLtrcQiIUL+NiLRDsmvruoIzow9dCxGoxH3rl1E48lYkiRx6eWXc+nll/fYpqqqHDp2bOqlGcCqfi9Pc3s938UraQY9YRT0FRjdbbTQHTT0JSeVKRI26IhLusFgwGq1Eg35aavfQ6C1ETUWTYuF1lR3kG4wGBg9ZjRV3ioikQPb3CEcCjHSNTLVjrfDAI/GdHs9TS6HczlwVufJxIFCNJqpqsl8cMhgIycnh5Zw+pxAlI0IkgFNiVHd6ccvKhqC1+MlGj9MJRqN8vaiRSx9bwk+nw9N0zhk7CFMmDiRyVOm4HTq7uFgIIAkSdhsVlpb2yB+Ws5ghPDrgJQpt0Z/snVFo5l2v5+mpiby8wd2/lEmpLo7srOzaWtoztgHJeijuqY67Xp2TjY+nw+/34+qqsiyzNnz53P2/Plp9ykxhUg0ghJTkAwS7W36pNFiSZJeDYNDej2AEk0cRtK/ShKZVJ7KyoNCeiqysuwI9U1drgtxI6C5qRmfz5e0y21WfbFXY2MjtXt2I0kSoigiiiJC/H/qX1hTifmjxGIxotEozc3JH/grGBzS24HktLy7/L/ekCTd42HylMxu1oFAS3n6bDY7QoaFCqmWl6eyktLSEvztvqTXsrGxkdLSAzsVc/PmzYlTzhRgIwwO6UlHvRqNIIj9q1IwyMiyjPcgWTBCyuBus9lQVaVLFEhIiQd8vW4d1qP1nTqstoSk60+HpmlEIhGCwSCRcERfhiMIFBYWpi2d1zSNt95MJgIsTuS+DCrpSjSMJvR/QJUtNjyeg0N6Khl2uw0tQz69kCLpe2v1QHRVVRU7d+inuD/yj0f4x8P/IBwOd0nXLiktYcL48Zxy6imMHKlvrbvgpQWsW7cucUty4+jBID15hEvdhhXYMqQv9BWKKFNZeXAmSEIK6Ta7HSXD0pZU0he9tYiFry+kra0jrpw4FzuBktISTjv1VI46+iiKivR8yLa2NjZu3MiCBS+z6ZtNiVvfcXs9ybM4B4P0ZKgoUFdDoK4GOacQc4mz26T6bmEwUuWtQlXVQdnhIhVpkm6zEYt2zddMDY43NTVhMBh8BoPh/Vgstgj9e/rifycA/63dW8vTTz/DO+8s1mSjLNTt74gapeB54KrUC4NBugf4BDgucSHa2kC0tQE5t0gn39y3DY1Fk5lgJMLevXspLy/vvcABIPWUGavNiqIoqOGA7ssPxf8CaTss1cVisTK315NpDcKLLofTDExXFKWstra2FP2IUJMgCG5N03YAO4F1bq/n3c6FB0y62+tRXQ7nHPQjxG6A5CoSoi31RFsaMOYVYRrqRDL3nFKdsGC8Hs+gk56qXhKLBNq2ru2pyJvdEA6A2+t5mnjGxIFiUJ5ht9ejuL2eP6PvknQV8G3HpxqR5jrat63Ft+sbPWrfzR6+Hbb64A+mgiAk94WxWqydP/TRsc91HTDD7fUM/Hy3bjCoitPt9bS7vZ4n0U8bOBU9tppErK2JgHcrbZtXaYHq7URb6lHDgeSMSjTq7tFt23o/jb0/SOh1S3x/gXnz5n224OWX9v/vf+/bhxQPSexyvCcRbDhYOCiZ/PEjIt8F3o0f33Mr8Q3xATRVESKNtUQa4+uGBRHJbE2qn89XD/4+XXozIigKlrikjxjpNBUWFhYDHDJmTLBOX/w1SBHy7jG4JkIGuL2eFW6v5yRgAvAKmbar11SUoI9IfEuP3TU17D4Izi8xfkiKLa7T/b5AUs9NmjwpEYXI61JwsPtxsBtIwO31fOP2es5DP0T2ZPQ8v51AG3TdNuxgSHsiqpVQL8GgP/n9J06YmNjGeozL4Tyo50cc3IVCGRCfCi+J/yUR31v8CPQYLKtXrWL+uecMatuyLBNEj9QLgkAoHEl+/6ElQ0sFQWjTNC0b/alc3W1FA8T3Jum9we31BOMDWCXAms8/H/QTYuSU9UUWi4VQKJTmfjEajYkUhemD2nAn/GhIT8ES0GeEO3bsGNSK5ZQ4qD3LTiQcSUtdsNvtiaypGYPacCf8GEl/L/Hi81WrBrViOWVRV0F+PuFIJC2KXlBQkLBcMu9iP0j4MZL+Gbp/Y9AHU0MK6Xl5+cSi6aSXlAxNJCwe1CXgPzrS3V5PGPgI4Msv1xIbxC1NRFFEimcr5BfkE4lEjQBNTc31C19/4/P1679KHI50UI8D/t6tlz7iPeD0gD/Axg0bmTJ18CJJsiyjKDHy8/P54P0Phv507okhoCj+l8CCbooPCn50kh7HYuI7jHy+enAtt4QFk5+XRywWk0hXJWHgYfS8zYOGHyXpbq+nHlgO8PnqwR1ME3o9vyAt+H0f8BMg1+313Oj2eg6qK+DHql4AXgV+unHDRoKBABbrwHbaUBSF1uZmWlv0yHxeXtps/5H4D/294Ecp6XEsAsKxWIxnnn6mSwJQXxGNRmmsr6faU0lzUyNq3K3cKc0j82ZdBwk9rjn6oeFyON8m5bSx/Px8Jk6exKRJk5k4aSKlZWUUFBR0yZiNxWL42tvxtbcRjofPWlpa2LFjB9u3bWfHjp3s2LEjsUoCYLzb69nE94QfO+nnoKuZHmE2m8nLyyM3NxebzUYoFCIYDCb/J/66wVpgZtwd/b3gx066FT0MeBQwhW73R+0XWoE3gRvcXk/3p30fBPyoSU+Fy+E0AdPQf4ARQAFQIIpikaqquegH2AbQM846//k6vd8MLHd7PYN3bNkB4P8BLPQmdKGwlXsAAAAASUVORK5CYII=;fontStyle=0;fontSize=24;" parent="1" vertex="1">
          <mxGeometry x="440" y="370" width="52" height="72" as="geometry" />
        </mxCell>
        <mxCell id="kKCmZU7g9CsREEnNZsZf-7" value="Jenkins" style="text;html=1;align=center;verticalAlign=middle;whiteSpace=wrap;rounded=0;fontSize=24;fontStyle=0" parent="1" vertex="1">
          <mxGeometry x="500" y="380" width="70" height="40" as="geometry" />
        </mxCell>
        <mxCell id="4X8OJqOi4j79PQFWo-uC-19" value="Integration&lt;br style=&quot;font-size: 21px;&quot;&gt;Node" style="outlineConnect=0;dashed=0;verticalLabelPosition=bottom;verticalAlign=top;align=center;html=1;shape=mxgraph.aws3.traditional_server;fillColor=#7D7C7C;gradientColor=none;fontSize=21;fontStyle=0" parent="1" vertex="1">
          <mxGeometry x="1000" y="519.38" width="46.5" height="63" as="geometry" />
        </mxCell>
        <mxCell id="MoC9TVmtlCLJZs_sMT2R-1" value="" style="shape=image;html=1;verticalLabelPosition=bottom;verticalAlign=top;imageAspect=1;aspect=fixed;image=data:image/png,iVBORw0KGgoAAAANSUhEUgAAA9oAAADmCAYAAAAqR/0MAAAAAXNSR0IArs4c6QAAAARnQU1BAACxjwv8YQUAAAAJcEhZcwAADsMAAA7DAcdvqGQAAFkQSURBVHhe7d0HnBXV+TfwZ9ne2aUjoAgIggIigg1FEgsRY4khxRYNMdjQRGKUqESToH/FN9FY0BATS0xCjBVFREExoPQiKCh9YUHKsiywfZf3/s7Oczk7e/verff33c/53Dv1zt575sx55pyZiTviIUQU87QoqK6uNqm8vFqqqsrMOKJwpaSkOO+IwlNaWuq8IwoPyx2KFMsdilR8fLLExVV5XuOlTZs2JsXFxdUkBtpEBCgKkBBkV1VVSWWlmEA7KSnJmYMoNOXl5abCy7xD4ULeQYWXeYfCxXKHIsVyhyKFvINAG/VlBNqaNOBu48xHRDFMg2wNtJGIiIiIiCgwBNyVlZWm/mzXqRloE5GXFgxo0SYiIiIiosAqKipMoI36swbbwECbiLxQMLBFm4iIiIgoNAi0NcjWOjRbtInIS8++abBNRERERESBIci2W7O1Ts1Am4i87GCbiIiIiIgCswNsuw7NQJuIamGQTUREREQUGneQra8MtImoDgbbRERERETB2UG2jYE2ERERERERUZQg8GagTURERERERBRFDLSJiIiIiIiIooiBNhEREREREVEUMdAmIiIiIiIiiiIG2kRERERERERRxECbiIiIiIiIKIoYaBMRERERERFFEQNtIiIiIiIioihioE1EREREREQURQy0iYiIiIiIiKKIgTYRERERERFRFDHQJiIiIiIiIooiBtpEREREREREUcRAm4gaTGlpqdxzz2Tp3r1fnYTxmB4t+/cXytVXjzPrXrp0uTO28T3++NNmG/BKRI1P90F/6fXX33bmbDjhln3YplDnpYaD73rixEnSocNxMnLkaNmwYZMzpcarr75hpmEe/i5ks/f5Cy+8TDZu3OxMqaH7OPfp2MJAm4iaxMsv/1v69BncpEFxfehB1dcBlYhaL5RZqDBHejItnLIP8z7wwEOsmDeBtWu/lDffnOkMNSwE9Ajs6xPAR2MdFB1ffLFOZs6c5Qw1LNQ/UA+pTwAfjXWQbwy0iahRPPHEo5KXt86k119/xRkr8qc/PW1ao1uaHTt2yvLlq5yho26//WbzP+KViBqf7oNff71Srr76B2acXf5cfvklZlykFiz4zHkXmnDKPmwvthvzTpw4wYzLy9shJSWs/DaFhx/+f7J48VJnqOGsXLnaBPb1EY11UPRMnfpEozQkrF69xgT29RGNdZBvDLSJqNENHTrEW+H8+OP/ycaNR7vnaWuRJl+tRu6uof66gupZWntee306HWn27A/NK6bjjK52AdOEbulaKcY2ouUAByYkvNczwbpteNX/BevVVm+7i7tut/vz7PntbdRxRFQ/ul/pPuduyXGXQ9hnd+36xsyHCjTgFdPCqUwHKvv8Oe20IZKT09YZosZy2WVjzCt+54KC/ea9PwjG0aVc02OP1eQRbWW2x2FdY8de6x2HdNNNd5hpL7zwislT6KLui72sJnx2oHVgmj0/tsdfl3gktIijFwXe6zYD9g/tVu9vPVTjkktGm9dQGhL81XnsMkrH2fUHjEOaMOFXZpr2lPFXH7KX1YTPDrQOTLPn91UP0S7xSCgf//CHR8173WYIVMdp7RhoE1GT6NXreDn33LPNe7TYAAr9yy//sXmvUMnRAlsLa63oBrN///46Z2mxrPtAhHnGjbvFOy9aj3SbFCrFjzzyx1qV8WD0f8R6ccYYUFHas2ev9O/fTwYOPMmsD5UaHOAU5r/55l/EzIGIqDFhv8L+ZZcNdhdtX+VQNPkq+5RWdFEZRVmF1nD2jmkaI0acKddd92OZN2++/O1vLzlj60Kge/HFVzpDNdASjiC1d+/jPceN35lxb789ywSmc+d+bNaJdd9yy41mWihw7Bg//nazbKiQn3fu3OUM1UCr96RJv/WePECQrUE6IFB/8slnnaEaWM+99z5opimsB8dNBtt1nXXW6Z6g9gem3vDii0e/M7dAdZ5evXp6gtb7zbh3333flFsfffSJWSfW/fOf32CmhQJB9m23TTTLhgq/OU4u2lBmTp78B+/JA9SlNEgHlF/Tpv3VGaoR63UcBtpE1CygMP7vf98077Wr5UcfzTIB6ZIly03BvmbNF97CGq1CmGf16s+kXbtcM84NrUfaZRMJ6wVUjPB5NnTTxDyo1KL16OWXp3uX0+1AV3F0Gcd6dRwS3j/00AOSkpLirK0G1oPWKNDP1C5aQ4YMkmOO6eL9n1Dxxv+Cz8O2YB7Mi4Pt7NlvmIT3RFQ/uHYS+5fu89jvsP/p/q3Br92NG+VB586dzH6uXbp1eZQHDQWVWLtliBpPWlqaJ7AdJwMGnOgNkt1Qps+Y8Zp5/8wzf5I9e7bIp5/ONcssWrTUBLM4oYqgGoHptGnTzfyYjnXjmHHnnRPMsoD5kKeuvPIyM2zDunbv3mOWxWfgs5CGDRvqdx1Y/9SpU7zzrl+/Qs477xwTrG/YsNFs/2efLTbL3X33L2vNY8OxCEE2xmM65sP8+J/QZZ1qQ94ZN+4npn6gQbJbKHWek07qb8ohlFfTp//dzI/pWDd+W9RXtF6j5ZWvS2PsE/z4DHyWll3+1oH1o7zTebWc1J442H7Ua8BdltqC1XFaOwbaRNQs2K3IqFyiRUe7Z+MAgQOFXQHGAQgQzJ5zzlnmvZu7q5R95tWGg8+YMTVdvZTdZUq3IxI4sw3YdmyPHpi+971LzYFM/yccvAYOPN18nrbYb9uWZ16JKDpQOdRWGuxn2N+w32H/wz6OXjDdux9jpqNyiNZllCHagtPQ7OBeu5hjO9HyRY0PLdK33vpzb5BcXFzsTKlRXFziKae3m/doFUaX6jPOGGXmR1CM4xbKeQ3YEawiyMU6se5w5ObmSMeOHcy68Rn4LD2eBGJ3C+/b95RaLeL29qMFH/A5Y8deYd4rnQfLYh1YF1rtYevWbeaVasOJ8fHjf+oNkt15J5Q6D/KOBuwoj1BOYZ3hnnTHb9qhQ3uzbnwGPiuUMsXuFq7lpLK3X+s5qI+hbmOL9ToOA20iahLaBQoHEJzx1zOuoK3VmrQ1VwtltCzhABQIKtTo6o3P0DOpetY2GBxc9ECAbdGzzJHQbqLYjtWr15qDDoYxHvR/sivYmthllCi67MqhtiLZCS08SHbLDPbdH/7wJ1Hr5ugu+/wJ1MWcGs+YMReZVmIEyXfeOckZWwPHLQTU8M47r5qWXk04bvgLpiMJThEszZjxomlJVuiy7u96bkAgrt3C0eLtbq3W7cdJgNzcoz3D3Nunw9pabv+faE0n30aPPt8c2xEk3333ZGdsjVDqPL5EEpxqLz3tjQPosu6+jM6GQFwbJ1BWulurdftRjuXk5Dhj625frNdxGGgTUaOzC3DtQq1nXAHdoxAoAyq3uFEZ6FlTu4UHLU3z5y8w721aocZB4IEHfmMONKEeoHQ+HFxQ6fZ1rXeo7O7jeFQMKtj2zY169OhuXnEgRhcr9corMxqtFY0oVqSmpoi2WKOc0X0Mr9jnlFZMtXKprd315avs80cDctBtpsaHk7ruFl6lrcyALuF63EI381mz5pj3GIfWcLREoyUbQW197maOwBYBrgbcgYJ2bYnGvOhKbp8YAN1+bJs+ygzzoNu77dhje5hXnGywu/u+9NI/zfzkG/KOu4VXhVLnwTi0hqP8QUs26jP16eGCwBYBrgbcgepEenIP86IruX1iAHT7sW36KDOUo+j2bov1Og4DbSJqFNo1Cklv/oEK7F13/cIcjFCx1QOSdtnEvOjmpF2u9HolwDq0O9O+fQVmnC92VyltpQ6VbrOvGyPZBxms333XYpueIMB1fqDDMHLkCO9ZYv2fkHBdF+Cgizt0xtJdOokail3xRRCrXRnxerR1qW53SbvVRiuOKE8wT7BKb7Cyz2aXfRqQo8zTS2WoaeA6aLslWeE4oEE4glD8btp9/PDhw2b8zJnvea9vvu228d47UtuBeY8e3cyrrsNXKzWCdxxrtBu4dt3WIDjQOjCvbheCamVvv87j7l4Oo0ad620JRyu6boMe08g/nKy3W5JVKHUenKzBNJQXN9/8M/nOdy4w4+3A3H2pi69Waq1HYP1IWhfSsizQOrScw3ahvqPs7dd5tLy0BavjtHYMtImoSaC1GC1G2rILOGuq1yUqFNAoqAGV0smT7/EG28pXaw/We8cdR7sl4UAXatfxa6/9sffAgFdsEyraNvf6A7G7gOJVu40D1jN9+pN1/iccwOzvhoiiAxVf9+UgeO++T4PCtKef/qO3K6d2B42Ur7LPH3wOyjx3QE6N7/rrr6lzkzBASzG6jdswH4JTu+s2AloEtpdeOsZ7vfZTTz1npvkL5INBd3C9cZqvdWi3d8BnYjvd/wOWt5fDOt3rwXa/+OJz3nUp/Z8oMLtOYQtU57F7v2h9AGUUyiMExM8++7yZ5i+QDwblkN44zdc67HIOn4ntdP8PWN5eDut0ryfW6zhxRzyc90QUo1AMVFdXS1VVlVRUVEhZWZkkJ6d7hsskKSnJmYsoNOXl5SYwYN6hcCHvoKWGeYfCxXInOnByQB9XhsAcAXxrx3InOnByQHvtIDBHAN/aIe/ExydLfv42SU1NNSk5OVkSExM94+PZok1ERM0PKj0TJ07ydlG0U6Cb//iDZ9piWbyC3okXn6Fd8NxwTdrYsdea+SK9nrI+3NvsFmj73P8fpmPYXwr0PRBR66VlhSYNstF6HehmfUT2ZTZIGmSj9ZqXu9RgoE1ERC0KumJGEmwTEVFw6D6O52/zkgUKF7qP4/nbzDs1GGgTEVGzhkof7rJrP5om3Mfj6J16Y/VRNOj+qY/jwfcJ9qN6WKkmik24RlvLBk163TdRILhG235cF5Je9001GGgTEVGLM2LEmeZVu0SjC7U+ZsbXuGDdsMHdXR13BQ7GVxd3+3Pt7t14XJM9r7/u3kiY79ChmrsWExERUcvDQJuIiJo1dBVH8InHzuAZsJ9+OrdBbtCDOwDjTsDqvvt+V+cxN27FxSXeZ9UqLDNlyqN1rnn+/vevqbV+PBLFPjmgdycGzPfkk886Q0RERNTSMNAmIqIWA8+AxbNg3a3B9YVn1OozYXGnXXSfdD+yxxc82mbGjBe9XS5xEgCP0Vm6dIVs357vzFUDj8yx14uTBgi0EZBr67nOY3eTJyIiopaHgTYRETVreo02kj7f1W4NjoaCggITxCO47d27lxmHO+66nxvri3ZLR8JJAKzHF+3ujvXjczAfPtduFdd5EMDjGbX11aVLZ157TURE1AQYaBMRUYuhgai2BkeLBro9enSTtLRU895Xt3A3XFf98MP/z7xHS7W2aIcD/wf+HyyXm5vrjA1+wzdsJ7YX3NsZ7s3iiIiIKLoYaBMRUYtgd7Hu2LGDafVFYIoAFddFb9iw0Uz75JOF5jUcGrDi2ujVq9eY91hfsGu0NaBFqzuuG9eW8XDg/8D/g+XefHOmGYfge9GiwN3j0VKNFmvA96InHuxu8HpigoiIiBoXA20iImrW9GZo3bv3895MDN2qawLtmiAVLr74SjOftjCHQ7tzg64Hr6HSbQxnGYX/Yfjwmpu7YduxHtz4LViQD5deOsZ7ogHLYFntvo5u7+j+TkRERI2PgTYREbUoaD3W57wiSJ048eizsRFc/uc/LzlDocN6pk17vNYNyF588S9Bb0h2/fXXeOfBK7qPh9t1HPB8b73+HPDeHvand+/j5bXXXqmznViWz8YmIiJqOnFHPJz3RBSjUAxUV1dLVVWVVFRUSFlZmSQnp3uGyyQpKcmZq36WLl0ul19e+8ZSV1/9A5k8+R6ZNWuOTJjwK+9wQwQHr7/+doN/RqQef/xpc3Mv2xNPPOr5vi5xhmq6TT/wwEPy8sv/dsbUeP31V2To0CHe/w/69+8nTz/9R+nVq6cZhv37C+W22ybKxx//zwy71x9N5eXl5vuNVt6h2IG8g7xen7xj53XdP1qTjRs3y803/8K8d+/nsSwa5Q7y3r33PljrMXzKPsFnw30a9NF8OMGFk2Y2XNIxfvztPnuo4MScv0cV2ssFmi8UuJxk3LhbzPvp058yJ+hwE0f0oPG1zUr/N5zA/P3v72+1J+6iUe740pBlUXOu08QS5J34+GTJz98mqampJiUnJ0tiYqJnfDxbtImoYeHgdc89k+sE2a0dTiygqzOCaH/0u3EH2W5YV58+g+sE2f588cU673XGauPGTd4gm4h8C2W/bUzNbXtiGQJOBJ42lOGffbbYGRJzXwW9V0IocKlJtB9VSETNBwNtImpQzz77vDdARCtqXt46k77+eqWcdFJ/M741WrDgM+edf2vWfOH9bnC2W7+bjz6aJWlpaWY8Wq9+85sHzftzzz3bE0B/5p0Py7hdcslo84rKGyqBCtuDlu5zzz3LGUPUOuXktPXsV9PNPhJuC1Io+21j8rU9aMGePfsNk9ia3XD0sYL2M+3dd/PHs/LxzHxcLnLeeSNM67PelNEXtExjnfbTCSK5eWO40IKN4woS3hNR42CgTUQNBt2mlixZbt67uyqjm9NVV/2gTnenxYuXmRYcJLT22sGitgDr9AsvvMwEojYMY7zOc/XV48x2uGlLEZLdWoTuWDoeyb0NmNe9jD1Ot1FbqfGKafi8UKHyfOGF3zLv0TKNFmoE2X/+81QTRCgEEe5AIjs7y8y7fPkq2bFjpxmnvwMqWNnZ2WYcUWuF/I793t7v7H3U3sd1Pw6237rLFbtcsD9v9uwPzXudrp+rKdQya9eub/xuj87vXlewskunY/z8+QuCzudveixz38V/5crV5saDOME5duz3zLhQAudu3bp6yu5TnKHg8KjBiRMnmZsdItkt6/ocf7wq9zh0HR85crRJeO8PTtDqZ4wde63s3bvPmUKhwH6C/UX3nf/+901nSm2ByhN7/8b+rmULUij1CHeZo2Uc6L6NdWq9yFd5SdHDQJuIGox2V0ZLaih3P0br7lVX/dQZqhnG9duAg5D7GmUEoLhWUSubOEigIoHxgZSUlHoPgLiR1u2332ze44Ck1zkrfN64cbd6D0rR1KvX8SYoBnSttw9+gP9ZuxWedtqQWkG2P507dzLz2t3H9Xfo2rWLZGVlmnFEsQgBq72PYzhY5RLlC8oZu1xBuYDyyB2A4jpYvUQD97pAwGzDOiZP/oN3Pw+1zAomnLIL4/2Vs6iIu9cTq/RJAribP55zj1Zo+zpp/PbabRwBuD4iMJTu4yib9TrwUB7B9/3vX1PrunFsW7S7nCMAv+uu+5whMa3z9933O2eIQmH34AOUEe5LtkItTzAd9QJ7efRu0/qOG5ZFwK4n5xSGNZBHPQz1MawT9QLQ+gGu9W7NvQybCgNtImoweXk7zGuHDu3NXZ2DwQEAXdvQrRyFPmzblmdetZu13X0aQTIORqi04CCiwTOWxTowz403Xm/G2d59d7Z3XddeW3PtOA5e7777vnmv3bixLXpQ+uijT8y0YNBC/9BDD3jvhI1Xf11YETg/8MBvzGcAPmfgwNO9B0WcENDvsEeP7uY1FGeddbp51e7j2v2Uz1SmWKflB5Ke5MI+Fmi/nTlzlilndJwua/caUVr2YF3oPYJXLGMvp5XcQGUWbqYTajkSbtkVqJzVV/08JGxHrN9oCa3WeGyeHdxqt3F0K8fjAfURgYG6j7sfHYgbkYVykzPM5+7GHu0u53iGvz4WUH97vKfQ+NoPfV3eFU55opfb6Txa3/FF60i6f9ufj/GYjt5y3/nOBWac1gv0Ffkw1vfzhsBAm4gaTPfux5jXPXv2hnSDmCFDBskxx3QxhT1aZm0acGowim5OeuYWlUM7KP3e9y71HjDOOeesWi3BOODcffdk8/6OO272Ttu/f785iKHiqWd17YOSVkCjTa+31IoxYBtxZjw1NcX7HYbz+dpSjgM3Dq7oNo7hPn16OXMQxSbtGYKE9xBo30IwrK3SKG9Q7qD8QTmE8gLlhs0ue8Duhq3LqVDLrGDCLbvsclaDPPyP+F/1hJ7+r3aX1lij12gjIdAFfC96LNNu42jJTktLrfU8/FCC4EB3+3bTk6T4jLFjrzDvowm/8c6du8z7008fZvIGUkN8Vmul+yGOtTgGA/ZHPZkF4ZQnqA9oT0C7vPJHyxLs99j/wf58na4n4lEv2LRpi3m1P4uii4E2ETWYnJwcU4DjAOLvLGyotLKIg4a2/GhC129UfhDQ4/Pwuf7gZmAa0No3GtKDUFPRgFtbsHDwQ0VcTzhgONTu63pQxvf+/PMvmYO4BhhEFDo7GLZv5qjJVwuzQrdw7YaNZe1WdAi1zAommmUX7qPhPunXUJfOtCQa6KILOX43BEzabRxduhEwoaUaj8sCf93HcTM0vREa5rWvqw6V+4Zs0YBrwLdt227eaxd40HEUnO6HODmOk+Rglx8QaXliB+j+hHoyXoNv1Avefvtd82oH5xRdDLSJqMGg1QStJ4AKJ1p3FCpuuK4w1NYSbWnRLlDqlVdmmHXpZyG4nD7979714qY/diWxe/du8pvf1FR+cUZZr8/Ua5fs9dtdwfQssG6HBr5IeB8JfLb9ndj0YK2fi4Mhnsdp/y9Y1t/1pbrc22/PMq86TEShs3uVoJu37n94RdkTiFaocfIMAawG1irUMiuYUMuuULl72YTaI6m1wu8yY8Zr5n3Hjh1Mq7J2G/cH3cfnzv3YGaoNN6V85JGaa58RbIdyrbW2kON3QBAPxx7bo9arBvf2PKFCi7wG2Phf8T8j2Y8uo8C0nKi9H9Z+rGY45YndQIEu5eihBrq8m+7n2O+x/wO2A9uD/VhbrNFTAT1oAHUgYP2g4TDQJqIGgwJ93LifeFtHEGzb3SiDnaG1jRw5wtsahBuE6Hq0MmkfPHBgwXOnMf255/5mxtmGDTvV23L8pz89bQ5ydldLXb/epMjukqkHORw88T+4u4MqdxdMfwGx/Z0g6YFPr5fCGW7dVv1MnTfQTYvsG63ZXdmIyD/3fouKqpYr9v6HVztoDkTX5b7pWShlVijlSKhlVyjsOxbrOkK9x0ZrozdDw3ehNyJDV2p8F9ptHNdL47pp7WKOVkm9rhlBqp48cUPQo/NpYBsIAnK9MRuCeHzuqFHnmmkaIGM8pus84UBeRJdx0BZ6+/+m4Nw3N8X3h1ebvc+HUp5o/SCU/VlbqjEf5rc/391izfpB42GgTUQNSltHNFi0hXPzDXR7nj79SXMgseGgpV2iEZS6bz6CwFi7cdnGjBltTgDgYPfII380FR10QXdvJ4btmwHZgS+g+5ev/2306PPrbKubfbCz4X+wH4WG7bK7c6pAB0j7mi52GycKja/9Fvu8e//De5QhgdjrwvzYr937e7AyK5RyBEIpuyKB7XU/VjBW4ZrtK6+8zLQYaws3rsm2T0LYAStavNHy7QvmGz9+nOlCjmD2qaeec6b49uKLf/HeBA3LTJnyW+/n4jiq15ADttMeDhX+NyyrcCLgscemOEMUDPYR7Cv2Pj59+lM+9/lQyhOMw/I6H9Zz112/8Ls/Y/zkyffUKS9QR9Enqyi7ZZ31g4YVd8TDeU9EMQrFQHV1tVRVVUlFRYV5LE1ycrpnuEySkpKcuYhCU15ebg76zDsULuQdnPRi3qFwsdyhSDWncgfdvvH4L3j66T+axopoa4zPiBXIO/HxyZKfv01SU1NNwlMjEhMTPePj2aJNRERERETUmuHSE7srOm+C1vAYaBMREREREcUIXFri7lJO0ceu40TEruMUVezCSZFi13GKFMsdihTLHYoUu44TERERERERNSIG2kRERERERERRxECbiIiIiIiIKIoYaBMRERERERFFEQNtIiIiIiIioihioE1EREREREQURQy0iYiIiIiIiKKIgTYRERERERFRFDHQJiIiIiIiIooiBtpEREREREREUcRAm4iIiIiIiCiKGGgTERERERERRREDbSIiIiIiIqIoYqBNREREREREFEUMtImIiIiIiIiiiIE2ERERERERURQx0CYiIiIiIiKKorgjHs57IopRKAaqq6ulqqpKKioqpKysTJKT06Wk5KAcPHjQmYsoNJmZmZKSkiJFRUXOGKLQZGVlSWlpKcsdChvLHYoUyx2KFMqd1NRMyc/f5nlNNSk5OVkSExMlPj6eLdpE5B8CbqJwId+g0kIULuQbljsUCZY7FCmWOxSpYPmGLdpE5LdFu7iYLQMUGbQsEUWCwRJFiuUORYrlDkUqLS0rcIs2KtmMt4kI3OUBywcKFfMORYp5hyLFvEORYt6hSIWaV9h1nIiIiIiIiCiKGGgTERERERERRREDbSIiIiIiIqIoYqBNREREREREFEUMtImIiIiIiIiiiIE2ERERERERURQx0CYiIiIiIiKKIgbaRERERERERFHEQJuIiIiIiIgoihhoExEREREREUURA20iIiIiIiKiKGKg3UK9+uobMnLkaNmwYZMzhpqLxx57QsaOvVYKCvY7Y6g1KCw8IBMn/kY2b97qjCE6qrS0VO6990E5/viTTbruup/L/v2FztSjMA7TdL4//3maM4VIZMWKVfLAAw9JWVmZM6YGhjG+f//TTHrmmenOFCLfUNbcfvtdsmnTFmcMUejefnuWXH75j1nnqScG2i0QKnRr134pHTu2l5UrVztjYwtONCCgbWqLFy/1BF+TzG+i7rxzgsyY8aLk5uY4Y6ilQ6X2zDO/LRs3bnbGENWWn79Lzj13hKdS+7lJV1zxXVNG2WUDKr533PFrmTBhvHe+224b70ylWIYTeT/72W1y1VXjnDG1Pf/8S55jfgf54oslnmD8f7J79x5TESbyBSfwTj11BBtjKCIoj956611niOqDgXYLtH17vnm9+eYb5bPPFteqyBFRdKEyi0rt3LkzpVevns5YotqOP/44Of/885whkZNPHiB5edtNAK5efvlfJgA/9dRTnDFENa3Vjz/+tHz3u9+Rf/yjbks1WpRwku9HP/q+GU5OTjbzoiKMCjGR7c0335FvvtktCxbMkd69j3fGEoXun//8j/Tt20fat891xlCkGGi3QGjFHjDgRBk48CTZtm27rF69xplS08Lq7raM9xiHaYAznOh23qHDcSahdVjp8rNmzTHTtNXYvYy7NRnBPlp2dfqLL75ihvUzwT2PuyXYDcvqvEgY1nXcdNMd8vDD/8+M1+1v7G3E+i+++Ep54YVXpHv3ft7Pw/bocro+/SysU7v82/+fr8/x9f8r/U11mn425uElBdF1ySWjZfLkeyQlJcUZUxu6emp3TiQME0Hbtm0lJ6eteY/WbFR+zznnLDPsy7JlK7xdypEwTK0fAmeUMShrfCksLJTMzAxJTT1aBvXseZxkZ2d5L09gOUTq0ksvlt///n6/xyyWMxQIyg40LowZc5Ez5iiWM+FjoN3CIMB6//0PZfDggaZr8vDhQ+WTTxY6U0V69+5lXjds2GheAe979OhmAnMEYJMmTZbp05+SPXu2yPr1K2TGjNdqBXHz5s2XL7740kxHN2j4+uuNtZZZtGipdxkEiLg2sUuXzmY6UlpamglAlc5z+unDvPNg/qeees6ZozZs59Spj8unn8418+IV68SBY+rUKfLMM3+Su+/+pZl25ZWXmWUaexvx3bzzzqty3XU/lry8dd7vyhd0+xs/fpxZJypTZ5wxynzvWA7bihMmM2e+58xdEzBPnfqEmYZl8P/j+8D3gu2cMuVRT6B9hZmGdfTvf6JZLjc311xSQI0DLU1PP/0Xkw/QpROvqampzlSKZe+8856MGnVurUA7IyPDXPajFVz7Om5cR/nEE8/IBx+8bbqU45V5iQC92NBtHAG5LyyHKFQsZygQ9JD5xz9myLXX/rhOecNyJjIMtFsYBM1ZWZnSrVtXMzxixJkmoNQWbF/BN94jeESQ+uabMz0B2ve83YkwPwI2e360ll966RhnqMbo0efXWgafgeAQ0KKO99dff40ZBpwJQwCqtNXdPkOGz1i//utare82tAbpdc747JNO6m/e+9MU2xiqW2/9uXfbsM7zzhthAm/8JvobbN26zUxHII0gfOLECbX+/+HDT6t1TT5OngDWgf8dMN+MGS95P4saXnZ2tjeY6tnzWOnX7wTznmIPumxqEH3mmcNNy5Lav3+/PPfc30wLgF6f7b6O224BR1f0/v37mfdEvhw4UGRau4HlEIWK5Qz5gy7j5557tilDfGE5Ez4G2i2MHTSDrxZsO/hGQqCIFnBU5nbu3GW6XdtdkjGM8VrZw5lzDfBsqBDqMui2rRDAIuhLS/N/ZgvzaBdrXQdadb/6aoPPIBYnEnBCoW/fU2p1bQ+mMbexPuyTCG7FxSVmW9AtXbdD/x8E4/jtkQcwPVDXdmp4Xbt2Nl06caM03piIEFhrEL1w4aJaLdaAsvnqq3/oDInpRp6Xt8O0cmtewg2MELATBYOu4ziWsByiULGcIX+07PB3CQvLmcgw0G5BEOwhgLYDZQSi6Ort7j7etm22md/dAg7odq1dozWhO7YG725YD64HBp0f3bZt6GLtb3mlXaztz/3oo1k+W1+xLmyTdm0Pdt1xU2xjQ0O3HHs7kLR7OrrLYxj/E04MhHMygqJHr61cuPADc2MiPgqDFO4mPnToKTJ//gJnjHj21WPEvs4W7zEOUDbhusplyz6R1157y5xI42N5CHD8xjWT7kd+KZZDFCqWM+SL3mX8z39+1nv9NfLGggWLzCsCa5YzkWGg3YLotdbuQBDX7y5atMQbiKKlFHcLRDdjBODolozCFQmBmXZRDpV+7i233OiMqQ3T7O7roK2yCvNgGOPDgf8Fj8pC12t0e/enKbcx2tDqrtsSDAJv/P64bt/+36hx4cTWX/7yZ7nhhmvkvffmOGOJjjr++J5y8OChWnchLykpNeNyco72bkG3vBdeeFZuvPF6wXXeRGi1Rj5BflGbN28xrUtoZVIshyhULGfIpmUHrr3WhMaes84abl7tVm6WM+FhoN1C6HW7drdxhbPdPXp0r3X9Lq4Dnj37A9NtXLuXA8bjzJR98zO8t4fdcIOtbdvyRB8rhnntbtm6/rlzPzav8Le/vWRa2hVuxIbgEeMVAsOXXvqnM1Sbe5t8nRywu7s3xTaqaAfn+H1xcuTJJ5+t1YqPO8Fj2L1NBQUF3ke8YPrYsdfUWo4aDq63te+6uX37DucdxZo5c+bVahnCnXyXLl3hvcs4KrboGfP88y96yy087gvjcJ0k5rfv/ovyjAi0yyaunwS0bKNFCY/4QisTyyEKFcsZihTLmcgw0G4hEECiQMS11m4IzBCA28/URvCN67fQsm1fC4xK3SOP/M50BdHu5wjgEWT6g2VwAzVcr4z50Upud8vG+qdNe9ysR9eJ58TaNxrDNk6a9CvTqqzzXHHFjz3rHO7MURsC57vuus87L9h39cbdfBHgarfppthG0OAcXfj1EVvRMGzYUNOKr/8PEu4Ej/8TLd6rVn3uHY+7k+N/s39nahxoaXrwwf/zdrWCm24aZ14ptuTmtpVvf/sScyM0pCeemCZ/+tP/eW8cA+hO3qlTR5NXMA8e9/Wzn/3ETEOr9v33/8G7PGB+IgTTOJ6h+zjyzimnnC1Dhgz2vA4y01kOUahYzlCkWM5EJu5IjZqBuDjzSlRfaHW9++77PcHyL0xw2By1hG1sLCgDqqurpaqqSsrLy02LSUpKhhQXF5lpwPKBgrHzCk5cMe9QqOy8ghPGzDsUKpY7FCmWOxQpO6+kpWVJfv4287gzJJwcTUxMlPj4eLZoU8NA92v3Tdiam5awjURERERE1PIw0KZ6Q8sw7vitXZmRINCdzBtbS9hGIiIiIiJqHdh1nIhMFxh2Haf6svMKu3BSOOy8wi6cFA6WOxQpljsUKTuvsOs4ERERERERUSNhoE1EREREREQURQy0iYiIiIiIiKKIgTYRERERERFRFDHQJiKiJoWbijBFnoiixVf+qm8iImpuGqus4l3HicgUMOHedRzjWWaQzc4rodz9F9M1UeTw/Wpqqey8wrv/Nr6G3BcbOn/aeYV3HW+d3PkyWr+tnVdY7sQG/Maa3PC7awrGziuB7jrOQJuITIERaqCN4Wlzd0lCwhGprIyTM9vv9rxPkDZt2njnYVkSGv1u7e8fUDibAjqK3yM+A+vXz8DvBfhc8PWZ9jIDBw50xvqn/w/W4a/Cu2LFCvPZlZWV8nF+judghG1hfqmP6uojUlEhMvKYQklKSmqwvIPfDLB+0LyE/d9f3sEygwcPdsb6Z+cVfxXeVatWmWFMwys+k+VO+PS7xSv2f/xGC/d2lMQEz3fYAP0cj3iKmApP1jmj3Tcmr0BTlTv4XIznMSsyvvIO+CoD6kvzQYWncPsov63Jn4C8NLJr4dFAxvpMXYblTvOj3y1ekXfwO4GvMqC+8BlahgB+L8BwoLJOy6qfn9fJu4w/dl5hoE1EAaEM0IIvUKCN90hPzPYE2vFxUll1RC487oC3UAlWMJFvWmHBd4/vGd8nKi7RPvDgM/DbAn4vQCUGfH2mvcwJJ5zgjPXPziv+KrxffvmlGUZee3t9qmc7eOypL3zP+Bm/26/UHOSjvS9q/kRFFBDMA/Ir4LfWwEXZy/Tr188Z65+dV/xVeNetW2cqLsg7GI/tcH8uhQ6/EfZ/7N+zt2SbymdDnPQyJ4I8lVc9VuC3a4pyB/kE/zPzTv3ZxyzwVQbUl+bPkpISeWt9Sq1A+7t9fZd1LHeaPzvv4PtsrPoOxuEz39uc5bes07LqtgtqAu1A22TnlZgPtB977AnZuXOX/P7395vCQGH8okVLZdq0xyU3N8cZ2/rg/3z44f8n11334zrfgS+vvvqGfPbZYjMv3Hvvg3L66cPkyisvM8PNTUv6HVGQ4/t84YVXnDEi5513Tq1td89z992/lDvvnGDe+7NhwyYZN+4WeeSR38mwYUOdsaFDGYDCL5RAG/NNeW2XxHuOMVXVIj86pcRbsOiBp7WWJdGm3y2+U3zv+O3xHWIfxcEc32M0vkt8DpJ+Bt7j9wL81vgM92e6lznuuOPM/IFgftD12cNqw4YN5n/Eel9YlGhO2LRpUzMfRaa6uuak1w1nVkt6erp3X7S/90jhN7TzJ4b1GIJh/a2Rd/Qz3cv07NnTzB+InVf0c3RYbdy40VTIUIFyfy7Y85J/+t3iN8J3XVxcLP9ele75bj3foecv2jwliec3E/nh4GJPhTTN/E5NUe7YeccdpNnzkn923tEgGN+huwyoL3yOnT///lkbkz8Beeknp9ct63QZljvNk5139Dey8w6+x2h8l/gcJPuYhXyCz0V+/dfKNL9lnZZVd1/W0QTJ+hv7YueVQIG2/zW0EosXL/UZZBcU7Jf167/2vDviKYA31oxshRA04//Py1snU6dOqfUdtET4PSdOnGR2HoUgdMaMF1vMyZLMzEz59NO5smfPFpPc2/7UU89Jly6dzbT161eYkwj4HQPp3ft4E2TPmPFare+mIaBw2bGzWrbvrHkFLSCjVVDGCvf3FgvfnR6c8Jq/y5OHdiEvMdUn4TvEd2l/t61dLO470WJ/X/pqyvT8unkrKsmzXqy/ueRP/f81aaDGFDz5+q4aip1fvPmzifOS+39vyP+/tWnK785nXsKrOzVA/mr1Ldpo7Rwx4sw6rXwI2D75ZKEce2wP2bp1W9AWw5YKAVq4/19zbtHG74ZgMpSW+eYIJ3juvvt+ueuuX5jg2M3X9FD/ZwTY+K3Gjr0i7FZtlAE42xdqi/ZD7x004+C6gQcDnvWj1uGYY45x3vln5xXkVV/Hlh07dnjz2vRlLfvEX3Pz0yElpuWlue2P4eYdbYXQYYW8Q9Gl++LLa9s6YxrO1QMKTf60f9NgolnuUMuD/In0l6U1PbDUuFNLg7Y4stwhWzhl3V3no9U78LHUzisx23UcQcuUKY/KpEm/qtPaqQF4bm6uZ/pkz3wPmMBGgxV3YGkHnyjIEfxcfPGVzlSRd9551Rvc6LwDB57kCXAnyTPP/Mmsy72Mjlfa/Xft2i9lwIAT5de//qW8/vpb8vDDD3q3354H3OuwaZdxhXkHDx5Y6/8Fd3AXTqCt3xf+19Wr18jSpStk+vSnZOXK1bW+L7ADRtD14kSAbmc4/492qfa1vbo96H6N7xLbVFBQ4P3+fXWj9/eb6v+IVub6npCJRqAdLO9FcuIIZYAWQv4CbaXzKvsMN8U2+1hiV3jBzh8Yj7yGrnjofohXDGO8vQz5p/scDuSoEOCgjldzYG+B+6Kdd+wKL7TE/6el0H1Ry37siyjf67svav7E8QH5El1DkTcbIn/aeSdQuUMtD35L5EfNl6B5Suse9WHnHZY7rRt+W39lHX7rcMsqO+/EbNdx7RKelpZqXhWCVXQb7927l3Tr1lV69OhuAkNAIY3gD4EbdjrAK4bRUqiBztSpT5huvejei27AU6c+btarEODhWiRM18ARn2kvM2PGf73LaACN7r+Y/t57r8uHH86TwsIDZjpgHgTJCBq1WzECMGyPLwi2ELgiILW3oyE8//xLMn78OPnoo1k+A0h/brrpDnPCA9uHgPHJJ5+t9T3a8P9gHgTJ6AofKJjU7cF6L7lktJxxxijzXWE5fG/btm2XmTPfc+auCWb9/ab4zRFkRwt+U2xPhw7HyciRo2v9vzihcsEF35I335xphhF4Y7s072FebJd2Pccr8pnq0aObuVRA825D0AJJE4YDFUYUG+wKii/u6fZBDXkb+RjX3GVkZDCFkPBd4TvDd4fvUCueLVG4eYeiC/kGFUJUDrWiqPtjpAnL25VOU+FsgPzJvNP6oX6B8s1O0ahzMO/EHn9lXbhlVTh5o1UH2oAACRURG4Lqvn37mKAG09yBNVp9t23Lk+3b880wXouKDprAHPMgYJs4cYK3lRmB5fDhp3mDdcANrkaNOtcZqnHNNT/yLqMBPlpZAYEVAkJtmcR2IVBs2zbbDAPmGTv2e95AFutCAIYu8E0N2x5OgK1wEkD/Z7RCDx16ivc7qY9bb/25d3suvXSM5/cYYb5PfK/6vaHlF0L5TRHUBwrsERCPHXttneAZLcxICuvHNdkIkpGwnTjBYgfbekIE6+rb9xSzrfodQdu2bWtt50kn9TfvAT00kFeLi0ucMfXnq0DR4FoTxTY7j/h7Dzqs+QYHNJz1RaDIFHnydlFrgftjuHmHosveFxHARHt/dPe0iGb+ZN5p/TTPaICEhPf1zUvMO7FH84y/si7UsipQfvGlVqDd2jIUWi3dtHUarajKHVi7W7ntwBwBDNaLrrsIhDShS7MGboCWRXdLOj4bN/LC/N279/PeVRrj0QqJ68X90XnQAmx/LoYbugUzFIG2PRBfy/n63erLDk7dQv1NA/nb314yATGCZ/Q4QPCMdSCAd59wsY0Zc5E5uaB5TQN2beVHwjag2zwgb2ZlZZoA3A7goyWSMgDLMMV2CoevZXBAQ+WJKfzkrgzYv0tLSOHwtTxT/ZMt2vtiQ+bPcPhanqllJIW8ZOcnX/OGmsLha3mmlpls7rIu1LIqXHVatCNZSXOFYNcNwTSuI7aDKnTjnTfvE2+wo63cCHB8BeaALswaCGkK1OKJFsuLLrrcrBfzogszukDbfG2vG7qCuz+3NdxNvDkI9ze1YT5tiUYrM7rQY/lgd0PH72Z3S8flDsgHaN1X119/jbnsAHkI8+P31ssG3F3P6yPQvh9pAUOxxVceCZZ3tPLEVL/U0kWSdyi6fOWraKWGxLxDkWLeiU2+yihNoQo1j5hA2z2zZrLWkNDai+em6fCKFatMK+Lu3ZtrpZkz/2MCl337Csx8gwadbIKbVas+N49jOvnkAWZ8amqKCYS2bs3zrtNXcn+P+rnf+96ldebBNQGdO3eS+fMXeKch7du3z1zPa8+zZcvWWvOEm3Jy2prWXXsc/ufCwsJa43Tb3O99JV/Tu3evudujPQ7fmT3Ofh9onDv5msceZ78PNE5TqL9pQyTkTeRRHXZ/R5rc4/A7/vvfL8gtt9wob7zxtnc88gxavPE/2fOHkmz2sPs9E5O/pHlEud8zMflLmkeU+z0Tk7+keUS53zMx+UuaR5T7PROTv6R5JBhvi7a9YGuBa6pBr1dFt9z//Of1Oq3ToPPqDdTQKnnCCb1l+vQXpH//ft4WY7x+//uXm2cd2y2Js2bNCdiyiEBu8eJlZhsAN+LSruOAbcI4XQfme+yxP5v3CtcaYx775md47+9maL6gOzsCMb3ZFlrsn332r7J7914zHC24Vhg9B3Dnb8D/he8sGtDNO5rXIIfym6Lrtnbfrg/374XfE/+Pdi/HZQz29wbolo7fDN3G3cu7u7ZjXTgho/k1XL7KAR3HxBRqUr6mMTEFSsrXNCamQEn5msbEFCgpX9OYmAKlYOq0aLtX0JITWv0QdHz99QYzrK+9eh1faz4kzDts2KnmxmI67uyzz/Ass9G0btvznnbaqaYl8cwzvyUdO/Y06YsvvvSst6eZ7ut7xDJYf79+Q8z8xcXFcu21P6o1/eGHH/Cuc/z42+WXv7xVsrOzvPNg/ZhnzJjvez8XrfDa2u4rKR1Gy/iNN95gAjwsP3r0FabLc58+vWoto+8DjbOTezq2Fd+Rbuu0adNl8uR7as2D5F7O3zhN+F/RWo7vEYEvxvma39c4OykdDuU3BZ2/Psn+/XBZwt//Ps3kP0zD5z333J/l17++3zsPWrwffPBe89vl5OTUmga//OVtZlm0jmN9yLf254WTlPu9/bgXJiZ/SfOJsscxMQVKzDtMkSbmHaZIE/MOU6TJnXf8Mc/RxrPEwumX3pIsWbLMtGIjUIm0la+ptORtp8ZXn/yihQaeL4jnGqOnQ3p6tuA52njeIFE4cAdP5EE8j721Hlso+lAO4YQiyh+WOxQuljsUCZY7VB8odwI9R9sE2qhYq9ZYOP3xj096WwVbSsCKruO33PJL09qM67rDtW7dV3Leed9xhqKjX78TZN68d50hak42btwsN954m+nxgNb5cNmBNg40qKhkZLQ1gTYOPsCKCwWDfAQoZ5HQywKYdygYzTuopKDMYblDoWK5Q5FiuUORssudoIE2z/41PbRGXnbZj5yhGm+88c+IgiaicKHAcLdoZ2XlmkD78OHDLB8oZMhL6enp5uDDvEPh0LyD8od5h8LBcocixXKHIqV5J2igzbN/RLENhYXdoo2Und3OBNpFRUUsGyhkyEtZWVmmwsu8Q+HQvIMKL/MOhYPlDkWK5Q5FSvNO0ED70KFDzFhEMQyFhd2ijV4uubkdTaC9f3/NnfJtLC/Ihvxjw037UOFl3qFgfOUdVHiZdygYljsUKZY7FClfeSdooH3gwAFmJKIYhoJDA23cHBEHnA4duphAe+/eo49+YzlB/tgHn/bt25sK7549e5wxzDvkn513OnToYMofljsUCpY7FCmWOxQpd7kTNNAuKChwZq/BzEUUW1BoIMjWQBst2p07dzOB9q5du5y5iELTuXNnU+HduXOnM4YoNF26dDEVXpY7FC6WOxQpljsUKZQ7QQPt3bt3O7MfxWCbKHagNVsTuo7jGu1jjjnWBNrbt2935iIKTbdu3UyFNy8vzwzzeELB4GQfdO/e3VR4We5QuFjuULhY7lB9odwJGmgvX76cBRJRDMPBRgNttGjDoEGnmkCbKBKo8BJFAhVeokiw3KFIsdyhSAUNtBcvXiydOnVyZudZQKJYo4G23gwNNwRhoE31wQovRYoVXooUyx2KFMsdilTQQDs/P1+6du3qzE5EscYdaO/bt0/atetkAu1DWYecuY7S+Sm2tWnTxueJ2YyiDFPhPZh50BlzFPMOgb+8k3kw01R4We6QPyx3KFIsdyhSgcodBtpEFJAeSAIF2nGev8TiZKk8VC0VZRVmHFFicqIkZLSRirQyOeL5A3eFF3knrqiNlBVVSkUp8w7VSExJlOSsBDmSVe3NO+4KL8sd8oXlDkWK5Q5Fyl+5w0CbiAIKFmjjoJNwIFkOHC6U+Ow2kpASbwoQim3mLvWlVVJ1oFqy09tKZXbNwceu8CLvHNndRopKCyUpN0kSUxOYd6imrCmplPKCcslKaStxHWsqvXaFl+UO+cJyhyLFcociFajcCRRot3GWJyLyC2d2cdBJ6pAgyelJPOiQgXyA/IB8gfyBfOKGFiVUdtO6pEpKRjLzDhnIB8gPyBfIH8gnbix3yBeWOxQpljsUqVDKHV8YaBNRUOg+Zc7sJiY4Y4iOQr5A/kA+cUO3TbQoMe+QL8gXyB/IJ24sdygQljsUKZY7FKlA5Y4vDLSJKCB0K8c1Sug+ReQP8gfyCfKLMnmntMJ02yTyB/kD+aRO3mG5Q0Gw3KFIsdyhSPkqd/xhoE1EAendNtl9igLR/GHfnZV5h0LBvEORYt6hSDHvUKR85R1/6nUztIKDZbI2b79s3XNI9haVSnll8A9USQltpH1WihzbIUMGdM+R3MzQ+roTUfThrBwKDHOjENfN0A6kHxDJT5D47sHP3FFsq8qLE+laKdmHs81NiQrTCqVsc5Wk9U5y5iDyrXhDuST3jJe2xW3NTYlY7lCoWO5QpFjuUKTscqdBboY2d3W+TP9gvXy6frfkFxSHFWQD5sdyWB7rwfqIiIiIiIiIWrqwA+1DJRXy8scbZOnGvc6Y6MD6sF6sn4iIiIiIiKilCjvQfmPxVtMS7cuRI9VSUV5W0wW1skKqqmru5lddVSXlpcVSWnxYykoOm2m+YL1YPxEREREREVFLFVagje7d/oPsI1JyqEi2rlspBwv3ys4tX0nBrjwTeBfs3iHrVyyUzz+dI2sWzZWdW78y433B+tmNnIiIiIiIiFqqkANt3PjMX3dxBNkVZSXSq2OqTJnwAxncs4PcfOU5ctUFp0pVZbl8Z3gfefbBW2XGk/fLy4/dLT/+1mCpLDloWsB9wefg84iIiIiIiIhampADbdxd3J+KslLZvuELSao6LJWVlbLp6y8lLTlBtmzbLiWHDkrvY4+R9flFMmvpVtmxp1CGnNRHhvXr6gm0nRX4EOjziIiIiIiIiJqrkANtPMLLn55d28nvJ/xIrrhwhLTPzZZf3HCldOvcUUafe5pcft4QeW/FDpmzKl9WbNwt6zbvlKrqaklOSpK4OGcFPgT6PCIiIiIiIqLmKuRAG8/J9idvz0F54vVFsjFvl3y+YYd8sPhL2bO/SF75cI3MW5MvBYfKaq7V/maHZCTHSZs2no+NT/QE2v4/PtDnERERERERETVXIQfa/p6TjeuscfOzkj2bJCMlUbZv3yEJ1aVy6NBhWfDpZ1JWUiLlZaWyN3+LjDypswwf1E927Dssq7YWOmvwLdznchMRERERERE1ByEH2kkJvmdFq/TFZ50kD064Rrp0ai8XnTtMRp0xRI7t1lkeu+sn0v+4DrJ/9w757hknyEXnnCb5BYdl3pqdUlEV4AJtD3webrLWEhMRERERERHFrpAD7fZZKc67uuav3SWfrNos+woPyb/mrpHd+4tk4drtMm32Ovliyx4ZfdrxcvbQAfL5pl3y4nvLZUtevrmBWqCgtF1msnked0tL+J/0lYiIiIiIiGJPyIH2sR0ynHd1tYmPly6d2kl1XIJkZmdLWmqaHCirCTQ7t02RQX2Pk+0798iCTxdJ2yP7pXPSIclKKJcjnoDUn265qVJeXt5iUkVFhTdVVVV5A28iIiIiIiKKLXFHPPLz86Vr167OKN/wXOvpH6x3hkLXv3tbuWDQMZKUGO+MqbFq8z6ZvXKHM1TXVWf1lLbpSc5Qy7NmzUpJSEiQuLg4k1oT/D9JSUmSkZEhubm55pVaNu2JgZNEOFm0b98+adeukxQXF8mB9AMi+QkS3529NCiwqjxPWde1UrIPZ0tKSooUphVK2eYqSevdcstyahzFG8oluWe8tC1uK6WlpSx3KGQsdyhSLHcoUna5k5aWJfn52yQ1NdWk5ORkSUxMlPj4+NADbZi7Ol+WbtzrDDWcob3ay6iBwbenuTp8uExWrlxqglEE2+Yu660MAjNA0N2tWzdPUNbODFPLxECbooEVXooUK7wUKZY7FCmWOxSpBgm04eWPN0h+QbEzFH1dc9Pk6nN7O0MtEwLt5csXS05OjvmyzRfdilq1NSjTbvP433r16sWW7RaMgTZFAyu8FClWeClSLHcoUix3KFKhBtphN7VeNuxYEww3BKwX628NELigNRtfNlq2W1PC/4SMhMA6LS3N/K8FBQXOf05ERERERBTbwg60M1ITTYszundHE9aH9WL9rQVaeltzwokEnD1G4H348GHnvyYiIiIiIoptEV88jGuox327r5zRt6Npifb3nG1/MD+Ww/JYT0u+JjuWoVsEAm10ISciIiIiIqIw7joeLr3mEwFYcXGxpKRkSHp6sjO1dcM12suWLZJOnTqZrtW4GRpagFsrXNNbWFgogwYNcsZQS6P7K6/RpvrgtZIUKV4rSZFiuUORYrlDkWqwa7SJiIiIiIiIyD8G2i0QegjMmTNH1q5d64ypsWfPHlm2bJkzRERERERERE2BgXYLhW4J6PKP4JqIiIiIiIiaj2YbaC9evFRGjhwtGzZscsYchXFjx17jc1o4HnvsCenQ4TiT8F4VFOz3rP9a77SJEyeZazeamx49esimTfX7DoiIiIiIiCi6mnWLdp8+vWTlytXO0FEffDBPsrOznaHIIJg+9dRTZM+eLSbBq6++YV4xbcCAEyUvb52ZNnXqFHODjeYGN1srKyuTbdu2OWNqw/iZM2eaNGvWLLZ+ExERERERNYJmHWhnZ2fJZ58tNoGvwns8s7lfvxOcMZHJzc2RkSNHOEMixx7bw3lXo1Onjs0yuLYlJSXJiSeeKBs2bDDXbdsQZK9fv15GjRolY8aMkaFDh8rnn39eZz4iIorMgf0H5L8vvSm/vvF+GXvedfLTS2+VZx6ZLls35pk7+ftSVlom7785T+695UGzzK0/ulNefPqfUlrS/HpNERERUeSadaDdpUtnkzZs2OiMEZk792Pp0KG9HDp02BlT0xKt3bzR5VsDc4yfNu2vZpzdNdyXrVu3SY8e3cz7goICue++35n1+eu+3lx06NDBtGxv3rzZGVPj4MGD0rdvX/N4McB86enpsnfvXjNMROEpKS6VD96eJ4UFRc4YinW7d+7zBNtF8oMbrpDJf7xbbrzzOinYWyiP3vsn+WrtBmeuoxCYP/1/0+Wj9+bL+d/9llnmhtuvkcSkRKmsrHLmolhV5ckDs1//UNau+NIZU9vCuYvk/+75o0nPP/6yJ68dbYQgcsMx6/03P5T9+w44Y4hCh2PYv/76qqfOw/xTH83+ZmiXXjpGZs2aY66RRkJA/O1vn+dMrXHllZd5u4CPHXuFCcYV3k+b9rjceecEZ0xduB58585dMnDgSWZ42LCh3vU98sjvZNKk39ZqVW9uevbsKd988405QUBE0YXA+j9/f0NeeOoVVliolj79j5cbJlwjQ04fLAMGnyjDzzlNbrrrBunYpaMs+3SleTa9qiivlLf+NUvatImTex7+pZx74VlmGSz7o3FXSkZmujMnxRoEzAicp973hKxcXPdyOUCQffDAIZn4uwny64d+4clrp8qct+Z5gqkSZw6iGjhO/euv/5W/Pv6iOfFHFC6cpFn3+dfOENVHsw+0u3Xral63b8+X1avXmPfo9m1DEKw3L7vppjtMMK4QeLvnt6Gl+5NPFvq9DhvBN67Xbs6BNlqte/fuXeta7czMTNN1XLuK4/psdLlv3769GSai4CorKmX10s9l8LCT5Yc/vVLSMpr35STU9DKzMqVr985SfKjYtFCqLRu3ydqVX8rlV31XMrMznbFEIjvzdkm/k/uYIHrwsIHO2KMQiOdt2S6njRgi8QnxZly/k0+QtjnZsml9zT1miADHrFVLVsuQ0wfJVTf+QNIzUp0pRKFbs/wLad8xV9LSa3rFUuSafaCN4Hf06PPlzTdnyvLlq0wLtw0B8N133y9TpvzWtEC/886rzpTgEGSPGHFmwNbulqJLly7mkV+VlZVmGHck79q1q8ydO9fcDG3p0qVy8skne7uSE1FwCYkJcs4FZ0mf/r2cMXVpi/e0R583af77C0xlh2JTWVm5FO4/IJ27dTJdwgHXa+OETe9+x0sXz/hgKsorZM5bH8lv73jIex33P6e/yuu4W6kBp5woZ44a7gzVhUC8bU5byW6b5YwRE3BnZmfI9i353hM66HKuXcuR0ApOsQXHrJEXjZATBvR2xtSlLd5PPvScSR+99wmPWeS1a8c3cujgYekzoG69B93I0Z38KU++QZo3i3knmGYfaEPv3r1k0aKl5lptbeFW2tKsrdZonQ4FrrvGNcvoJh4IWtFxvbP7c5sSguVzzjmnVtCcmJhoxg0ffvRgPWDAAHMjNKTRo0eb67SJKHrQvep/Hy70BONnyvhf3SDj7rhWOnRir5FYhG7i3+Tvltdeekvi4+NlxLfPcKaIJ0AuM5UXBN9bNuTJo/c9LtddPN4E0KjwHjxw0Jmzpos5xs2b9bFccOkocx33939yhadyvN9ToeF13LEI9wFAUK2t2So7J8uc1CkvL5cdW/NljSfQnnDfeNO1HK/pmTyxTrXhmPXJnAWeYPxsufWeG2X8xBukQ2ces6gGAunFnyyTU4YPNHGFDXln/vsLzYmcWzx55+eevNOReSeoFhFoI4hGF3Akd/fu3r2Pl759+3jSKabreKjsG55p0udl2zdXmzr1CZk06VfN/g7kRNT4ykrLJS5OJNkpH9CacOKgvuaVYsP6NV+bVucffut6ue2qX0lO+7Zy86/HeYKgo4+gRIsjej5s37JDXnj6HzL0zCFy1x9ul4uuOF8WzV8izz72N2+wvW/PPtPF/KLLvy1nnjfcXMeN67lRqUljN1CytM09msdwp/vuxx0jqWk1eQSvg0472bwnUjjp5z5moYzhMYs0kB424tRaZYvCEzNEjkhKqpV3TmHeCabZBtpoaba7dOOGZ9r6jKB38uR7TJANmE9vXob3uhyWQfLFvuGZJr1O27652owZLwa8xpuIYlfb3CzpfExn05UKN7+i2HNMjy6m1RnpZ7+4XlYvXSu//9Wjsumro9fOHigs8gTahSbQHv+rn8p5o0eYyu2Y718kP739Wvn6i42yZMEKM29KarKkZ6bLV19sMBUfhVbyNm1axLlxagLH9uoun8xZ6PeO5USQ0y5bunTrIv947t+y1ClziND9+7OPl5h7RXQ+xvflTQi+u3TrLP949t+y5H/LnbEUTPxvPdA1GjfPijZcl1ZVVSUVFRWSkJAkSUmxcdajoqJKdu7cIRkZGabrRVxcnEmtFbpMoidA586dnTHUEmF/RcLvWVJSImlpGZ68XCZlSWUiB9tIm7onOGMKWgLyNudJj57dTTCkcOMr3Cxt0/rNMuu1DySuTZwZF4uOFHnKucxqSalI8ZT5CVKaWCpVhUckMbd2l9fWJCk5STp27mBSr77HyfARp8q2zdtl2cIVcvKp/SU5JVnKS8tlqWd40GkD5fRzh9Y6HuDGaPl5O6XMk78GDO4vqemppjVy7rsfy3uvz/Hsi6XmcoQ0z/jWfBypKKiShJw2Ju/gXiOxWO4cqT5iTtBktc2Ujl2OXuqVt3mHee3es+YRpCrPk8/KyyrMPSSyPZXgnn2OlVdfeFMWfPiZOSnjnr+1isVyJxQ4Zm3b5DlmHd/DU6Yc7ZXZtUcXc7O0Des2ycz/zDZ5BeNiEcudGrt37ZH5s/9n6jFL/rfMpM+XrZWiwiLzimMPTiojad5599XZ3vGxyC53EhOT5eDBAybmQ0I5pCfHeXqciKie0HUKN027/KoxsnP7rlotkRRbEFijy/falevkm/y9ZlyKp5KbkZkhbeLrnnRNSIg3N7IsLyuXI0eqzXR03ZvyzG/limsuNS3kE396r7z971nmxDXFHlyLjUd72XexV/a128cc29Vcn/2zO39iHs2DZ3L7WoYIxyxca3vltZeaE308ZsU2tGLjums7XfXzH5iTdXg97ewhzpw1eQe9sr7nyTs7t3/DvBMEA20iogjhutvNX291hoiOQq+H+ISaQywuSUIvh/17C80dxW2VnkCorKzMXNNtX+uGFqhR3zlH7n30Lrl6/A/kvy+9JRu+3ORMpViCLps7tu00lyAoBNC44ziCcLfc9jly4WWjvDdKI1K447h9WQtRqHCjNOad8DHQJiKqB1znpo/2WrJguXzr4pG1uulRbMENYxbOW2S682r334TEeNPd7vPla+XrLzeacWrjuk3y5ar1cuLAE0xrNi7dQFKJSQnSf1A/c2fgg0VH705OsQOtTeieueST5d4W6nWff2Ve8TxtWLXkcykpLjHvATdHw3O2k5KSnDFENXBXaX20F96f/91RPGZRSBZ/stT7aK/FnvLo/O+ex7wTRNwRj/z8fPPM5WjSaz1xNrW4uFhSUjIkPf3odY2t2eHDZbJs2SLp1KmTeQQX+ui7uwu2JrgGv7CwUAYNGuSMoZZG91e9p8K+ffukXbtOnn23SA6kHxDJT5D47kecuYl8q8rzlHNdKyX7cLZpxS1MK5SyzVWS1rv1VfbRMo1WZnTdPfb47uba/II9+2X+nIWy95u9cuOd13uC577O3DUB+MvP/lvWLP9CvjVmpLmeFr0hPpz5kZx74dlyyQ9Gm2u60HL5yl9myLCzh0r7TrkmsPrkg4Wyb/d+uXXSzyS3fa6zxtaleEO5JPeMl7bFbc09P2Kx3MFv/cHbH0m347qau/nadNrKxavN8OBhA+Xbl4z0dhvHM7NxMzTlnt6axVK5Q9HFcociZZc7aWlZkp+/TVJTU03C5WC4VhvHdAbaDSCcQHvbtm2yenXNgRM/yNChQwXPu160aJF06dJFevToYaY1Zwy0Wz4G2hQNsVThxf6ybOFKef+tufLVWtwhvMS0Op797TNM4Ny+YztnzqMQnH/03gL5ePZ8+eqLjXLykAHmWdlDTh9sWq7hUNFheevf75i7uiLoxjqHjRgqF13+Lclp13qfgMEKL0WKgTZFiuUORYqBdhMKNdBGMI1r88444wzzgyDA2bRpk/Tt25eBNjUqBtoUDazwUqRY4aVIsdyhSLHcoUiFGmjzGu0msmfPHhPUaJANeEWQTURERERERC0XA+0msnv3bsnOzvYG2b7gWcZz5syRmTNnmhZuQGvj/PnzzTh7POD9+vXr6ywD6KKuyyxcuNAkBPvgXifmBXsZTMd8REREREREFBgD7SZy6NAhyczMdIZ8Q6B71llnyahRo+Tw4cMmMEZgfs4558iYMWPkwgsvNK3iGjCDr2WQEIAPHz7cLNetWzc5cOCAmR/B85IlS+TEE08007Dcli1bpKioSLZv3+5dBp8Z6KQAERERERER1WCg3UQyMjLk4MHAj2pBN3Jc442Unp5uWrhBW5pnz54tBQUF3vHgaxmkrKwsc5M1wLXfaE0HBNoIyNH6jXXOnTvXDOPacVxbsHLlSnONPREREREREYWGgXYTQWs2bjgVbndsBNlocUZrNlqaNXgOBAE9Ant/cNE+WrKxPqTRo0eb9aI1G63jCxYsYNdxIiIiIiKiEDHQbiJoVYbly5ebV0DL8apVq5wh3xA0693sMD+6eAfTsWNH+eabb7wt0zt37vR2Hdfu4Js3bzavbmgZHzlypCQkJJg7ixMREREREVFgDLSbiF5rDXrDMbQc9+nTx4zzp2fPnia41vkRdAeD1mk8agzdwrEcrr3WruPYDjy7G4940+1A6zWCcr1BGrqoY/5QWs+JiIiIiIhiXYt7jnZBwX4ZP/52mThxggwbNtQZe3T8vHnz5bzzzpFp0x6X3NwcZ2rt6XDddT+W3//+fvPMRfC33kiE+hztpoLfY+nSpSbAxvbVF7qU8znaLRufo03RwOfZUqT4PFuKFMsdihTLHYpUq3yO9mOPPWGC4R49ujljaiBIvvvu+2XKlN/Knj1bZMaMF2sF2YB5Bgw4UfLy1pl5pk6d4g2y/a23tUI3cWSCaATZREREREREVFuLCrTvvHOCCaK7dOnsjKkxd+7HcsEF35LevY93xvjWqVNHb3Bt87fe1gIt2PpsbSS0Vg4ZMsSZSkRERERERNHUKq7R3rt3nwkmO3Q4ziS0UMOGDZvkgQceMt1B8Bis++77nZk+cuRoMy1WoOX6/PPP995VnM/EJiIiIiIiajgtPtBGEL1hw0ZZvXqN6RaOtHPnLlm8eKkzRw1cd40u40iPPPI7mTTpt6Y7OREREREREVE0tZq7jo8de4XpFo50+unDZNu27aYr+eTJ99TpLj5w4Enmem0G2kRERERERBRtLT7QRhDdWq+tJiIiIiIiopanVbRojxhxpsyY8ZpzLfZ+ef/9D2Xw4IG1rtG2oZv5wYMHpVu36D7SjIiIiIiIiKhVBNq4/hrdxbt37yd9+54i48ZdV+cO5K+++ob3ZmlTpz4hkyb9yucdyImIiIiIiIjqI+6IR35+vnTtGt3WXc9qpbq6WsrLy80dwVNSMiQ9PdmZ2rodPlwmy5Ytkk6dOpk7frdp00bi4uKcqa1PRUWFFBYWyqBBg5wx1NLo/lpVVWV+TzwCrl27Tp59t0gOpB8QyU+Q+O5HnLmJfKvK85RzXSsl+3C2OZFZmFYoZZurJK13kjMHkW/FG8oluWe8tC1ua3qhsdyhULHcoUix3KFI2eVOWlqW5Odvk9TUVJOSk5PN053i4+Nbz83QiIiIiIiIiJoDBtpEREREREREUcRAm6IC3eOJiIiIiIiIgTbVE67tRcK1CERERERERMRAm6KgsrJS0tPTnSEiIiIiIqLYxkCb6gV3qkbKyclxxhAREREREcW2Rgm0W/OjrWKV/Tio9u3bS0ZGhjOFiIiIiIgotjX4c7TxTF48my4xMdWZEhtWrFgi7dq1M890bG3P0db/JyEhwXQZZ5Dd8tknTvgcbYoUn2dLkeLzbClSLHcoUix3KFKhPke7QQNtJFy/W15ebjJwWVmZGdZprQkCTw0+8QWjsE9KSjLDOo2oucL+yECb6osVXooUK7wUKZY7FCmWOxSpJg+0AZV3VNwRXKPyjldU5jXI1teWToNovKK1F8E1vmC8mi+ZQTY1c9gXGWhTfbHCS5FihZcixXKHIsVyhyLVbAJtrcBr0nGtkbZcI9jWpOOImjPdTxloU32wwkuRYoWXIsVyhyLFcociFWqg3aA3Q9MgEx+krbzoTt2ak7slm0E2ERERERFRbGnwu45rsImkrbwIQltjcrdiIxEREREREVFsabTnaNvBZywkIiIiIiIiik2NFmgTERERERERxQIG2kRERERERERRxECbiIiIiIiIKIoYaBMRERERERFFEQNtIiIiIiIioihioE1EREREREQURQy0iYiIiIiIiKKIgTYRERERERFRFDHQJqKA2rRpI9WeP6mKc8YQ+eDJH8gnyC+26jjPuCPxzhBRXcgfyCduyE/xkuAMEdWF/GGOTxZzzPLkpyOVzggiH5A/zPHJOmaxvkMh8VPf8YWBNhEFFBfnOeCkeiq8xazwkn8mf3jyickvlqqECkmuSHGGiOpC/kA+saECU96mlHmHAkL+QD6xK7wog+LTPOXQQQZLFIAnfyCf2Mcs1ncoFP7qO74w0CaioI5kVElJUYmklKWxhYlqQX5AvkD+QD6xofJbllgiUh4nqeXpbNmmWpAfkC+QP5BP3MFSRWqZVJVUS2Z1NssdqgX5AfkC+QP5xF3hjc+Jk8OFxZJwOInlDtWC/IB8gfyBfOLG+g75E6i+40/cEY99+/ZJUlKSM4qIYo2nGJDq6mqpqqqSyspKKSsrk3btOklxcZEcyjpk5ik+WCxysI20T+8gqSmeA1A8Ky+xDvmlpLRY9h7eI55ar6RlppnxGUUZkpKSIgczD8r+ffvN+9zE9pJQiUovz+9SDXTbrEwol4KKvVJaWio57XIk82CmeY9yp6y0TIoKi6R7zrGSEZ8lbdg2QA502zxUVSR5+7dKVtssSU5JrlXuwOGDh6Vqf7XkpLaT1GQes8g5ZpUVy/6SfZ4gu42kZ6ab8Xa5A6zvkFug+k5aWpbk52+T1NRUk5KTkyUxMdHkGxNomzmJKGbZgXZFRYUJtJOT02sF2oCKb3FxsZSXlTtjKNYlJSd5DjJppqKr7Aov8syB/Qckt32uJCSydYBqq6yolIK9BZKdk23ykLvCi2Dp8OHDkpGZYaazwks4TqFcOXTwkKSnp3uDJXegDeaYdZjHLDrKHLPSax+z3OUOsL5Dbv7qO0ED7fz8fGd2IopFGmgjIdCGLl26m0DbF52fYhu6+vq7RgkVXnXo0CGTsrKyzAGIwRKZYKmsTIqKiiQjI8MkhQqvDfOhwotXIkA5Yiq8nlebXe7YeMwiCHTMcpc7inmHIFDeCSnQ7tq1qzM7EcUaPZBoizYuJ9Gu40SRcFd4UYlhsEQ2DZZ85RVfWOElCPUEH1E4/JU7RMH4D7Tj5f8DtAZIi7vt94wAAAAASUVORK5CYII=;" vertex="1" parent="1">
          <mxGeometry x="69.99999999999999" y="451" width="855.83" height="199.25" as="geometry" />
        </mxCell>
        <mxCell id="bC7OHCeX101TMUWNberd-2" value="ace-demo-pipeline" style="dashed=0;outlineConnect=0;html=1;align=center;labelPosition=center;verticalLabelPosition=bottom;verticalAlign=top;shape=mxgraph.weblogos.github;fontSize=18;fontStyle=0" parent="1" vertex="1">
          <mxGeometry x="40" y="390" width="75" height="75" as="geometry" />
        </mxCell>
        <mxCell id="MoC9TVmtlCLJZs_sMT2R-8" value="" style="edgeStyle=elbowEdgeStyle;elbow=horizontal;endArrow=classic;html=1;curved=0;rounded=0;endSize=8;startSize=8;entryX=0.269;entryY=0.251;entryDx=0;entryDy=0;entryPerimeter=0;strokeWidth=3;" edge="1" parent="1" source="bC7OHCeX101TMUWNberd-2" target="MoC9TVmtlCLJZs_sMT2R-1">
          <mxGeometry width="50" height="50" relative="1" as="geometry">
            <mxPoint x="240" y="200" as="sourcePoint" />
            <mxPoint x="290" y="150" as="targetPoint" />
          </mxGeometry>
        </mxCell>
        <mxCell id="MoC9TVmtlCLJZs_sMT2R-10" value="" style="endArrow=classic;html=1;rounded=0;exitX=1;exitY=0.5;exitDx=0;exitDy=0;strokeWidth=3;" edge="1" parent="1" source="MoC9TVmtlCLJZs_sMT2R-1" target="4X8OJqOi4j79PQFWo-uC-19">
          <mxGeometry width="50" height="50" relative="1" as="geometry">
            <mxPoint x="520" y="500" as="sourcePoint" />
            <mxPoint x="570" y="450" as="targetPoint" />
          </mxGeometry>
        </mxCell>
      </root>
    </mxGraphModel>
  </diagram>
</mxfile>
